<?xml version="1.0" encoding="UTF-8" standalone="no"?>
<!-- Created with Inkscape (http://www.inkscape.org/) -->

<svg
   xmlns:dc="http://purl.org/dc/elements/1.1/"
   xmlns:cc="http://creativecommons.org/ns#"
   xmlns:rdf="http://www.w3.org/1999/02/22-rdf-syntax-ns#"
   xmlns:svg="http://www.w3.org/2000/svg"
   xmlns="http://www.w3.org/2000/svg"
   xmlns:sodipodi="http://sodipodi.sourceforge.net/DTD/sodipodi-0.dtd"
   xmlns:inkscape="http://www.inkscape.org/namespaces/inkscape"
   id="svg2"
   height="300"
   width="1000"
   version="1.1"
   inkscape:version="0.91 r13725"
   sodipodi:docname="logo.svg"
   inkscape:export-xdpi="9"
   inkscape:export-ydpi="9">
  <defs
     id="defs3624" />
  <sodipodi:namedview
     pagecolor="#ffffff"
     bordercolor="#666666"
     borderopacity="1"
     objecttolerance="10"
     gridtolerance="10"
     guidetolerance="10"
     inkscape:pageopacity="0"
     inkscape:pageshadow="2"
     inkscape:window-width="1680"
     inkscape:window-height="987"
     id="namedview3622"
     showgrid="false"
     inkscape:zoom="0.5105311"
     inkscape:cx="733.46969"
     inkscape:cy="225.6853"
     inkscape:window-x="1272"
     inkscape:window-y="-8"
     inkscape:window-maximized="1"
     inkscape:current-layer="svg2" />
  <metadata
     id="metadata7">
    <rdf:RDF>
      <cc:Work
         rdf:about="">
        <dc:format>image/svg+xml</dc:format>
        <dc:type
           rdf:resource="http://purl.org/dc/dcmitype/StillImage" />
        <dc:title />
      </cc:Work>
    </rdf:RDF>
  </metadata>
  <flowRoot
     font-style="normal"
     line-height="125%"
     font-size="40px"
     xml:space="preserve"
     font-weight="normal"
     style="font-size:40px;font-style:normal;font-weight:normal;line-height:125%;letter-spacing:0px;word-spacing:0px;fill:#000000;font-family:Sans"
     id="flowRoot3004"
     transform="translate(38.558235,-191.85152)"><flowRegion
       id="flowRegion3006"><rect
         height="63.639999"
         x="422.23999"
         width="93.944"
         y="353.34"
         id="rect3008" /></flowRegion><flowPara
       id="flowPara3010" /></flowRoot>  <path
     style="font-size:40px;font-style:normal;font-weight:normal;line-height:125%;letter-spacing:0px;word-spacing:0px;fill:#000000;font-family:Sans"
     id="path3080"
     d="m 86.476737,33.313871 0,45.039652 -18.904133,0 0,-45.039652 -26.074667,0 0,116.751759 26.074667,0 0,-45.47693 18.904133,0 0,45.47693 26.291953,0 0,-116.751759 z m 12.168026,60.780148 0,42.197341 -9.995138,10.05725 0,-42.41598 z m 0,-47.226043 0,42.415983 -9.995138,-10.057246 0,-42.415983 z m -8.474115,-11.58772 18.686842,0 -9.343269,9.401329 z m 2.824755,57.283441 4.128489,0 -2.172889,2.186391 z m 0.434578,3.498226 -2.824756,3.060947 -6.735804,-6.559021 6.083938,0 z m -2.607467,51.817467 -0.651866,0 0.434577,-0.43728 z m 4.128489,-4.81006 4.997645,4.81006 -6.083938,0 -1.9556,-1.74912 z m 4.563067,-4.59142 9.34327,9.40132 -6.08394,0 -6.301224,-6.34053 z m 1.08643,-7.87086 9.99514,10.05725 0,5.90325 -9.99514,-9.83861 z m 0,-9.18269 9.99514,10.05725 0,6.12189 -9.99514,-10.05724 z m 0,-8.96405 9.99514,10.05725 0,5.90325 -9.99514,-9.83861 z m 0,-9.18269 9.99514,10.05725 0,6.12174 -9.99514,-10.05725 z m 0,-8.964051 9.99514,10.057251 0,5.90325 -9.99514,-9.83861 z m 0,-9.18269 9.99514,10.057247 0,6.121744 -9.99514,-10.057248 z m 0,-8.96405 9.99514,10.057246 0,5.903255 -9.99514,-9.838607 z m 0,-9.18269 9.99514,10.057246 0,6.121742 -9.99514,-10.057246 z m 0,-8.964051 9.99514,10.057246 0,5.903255 -9.99514,-9.838607 z m 0,-9.18269 9.99514,10.057246 0,6.121743 -9.99514,-10.057246 z m 3.47662,-5.684616 6.51852,6.77766 0,5.903255 -9.56056,-9.619968 z M 108.4229,38.78 l 2.17289,1.967752 0,6.121742 -4.99765,-5.247338 z m 2.17289,-2.186391 0,1.311819 -0.65187,-0.655902 z m -13.689051,53.785216 -39.763866,0 9.777849,-9.838607 19.990577,0 z m -14.992782,12.243635 -6.083938,0 -9.995138,-10.057244 6.083938,0 z M 65.61729,40.749118 l 0,6.121743 -5.214933,-5.028699 3.042044,-3.060947 z m 0,9.18269 0,5.903255 -9.777849,-9.619968 3.042045,-3.060947 z m 0,15.085945 -9.995138,-10.057246 0,-6.121742 9.995138,10.057246 z m 0,3.060948 0,5.903255 -9.995138,-9.838607 0,-6.121743 z m 0,63.403819 0,6.12189 -9.995138,-10.05724 0,-6.12175 z m -8.256827,-44.383737 -1.738311,1.749113 0,-3.716865 z m -1.738311,-4.81006 0,-6.121743 6.301227,6.340382 -3.042044,3.060947 z m 0,-9.18269 0,-6.121743 9.995138,10.057247 0,1.967751 -2.172889,1.967752 z m 9.995138,-36.512728 0,1.31182 -0.651866,-0.655902 z m -20.425155,-1.311819 18.686844,0 -9.343271,9.401329 z m 8.256827,101.009744 -9.777849,10.05724 0,-109.536662 9.777849,10.057246 z m -7.60496,11.58772 -0.651852,0 0.217289,-0.43728 z m 4.128488,-4.81006 4.780356,4.81006 -6.083938,0 -1.738311,-1.74912 z m 4.563067,-4.59142 9.343271,9.40132 -6.083938,0 -6.301226,-6.34053 z m 1.086429,-7.87086 9.995138,10.05725 0,5.90325 -9.995138,-9.83861 z m 0,-18.14704 9.995138,10.05724 0,5.90326 -9.995138,-9.83861 z m 0,-9.18269 9.995138,10.05724 0,6.12174 -9.995138,-10.05724 z m 0,-2.84231 0,-6.121745 9.995138,10.057245 0,5.90326 z m 1.303719,-7.870858 5.8668,0 9.995137,10.057248 -6.083938,0 z m 18.034977,0 5.8668,0 8.256827,8.089498 -1.738311,1.96775 -2.607467,0 z"
     inkscape:connector-curvature="0" />
  <path
     style="font-size:40px;font-style:normal;font-weight:normal;line-height:125%;letter-spacing:0px;word-spacing:0px;fill:#000000;font-family:Sans"
     id="path3082"
     d="m 197.21711,49.493163 c -0.11332,-4.595824 -1.67946,-8.412898 -4.69887,-11.45107 -3.01941,-3.03802 -6.81291,-4.614044 -11.38035,-4.72807 h -39.112 c -4.5676,0.113996 -8.36095,1.69005 -11.38036,4.72807 -3.01941,3.038172 -4.5857,6.855246 -4.69887,11.45107 V 150.06563 h 26.07467 v -27.11125 h 19.12142 v 27.11125 h 26.07466 z m -14.12362,62.747897 0,24.26894 -9.99514,10.05725 0,-24.48758 z m -16.73125,8.52678 -6.08409,0 -9.99514,-10.05725 6.08394,0 z m -14.77549,-22.082552 19.77329,0 9.99513,10.057242 -39.76386,0 z m -21.29431,49.412432 -0.65185,0 0.21728,-0.43728 z m 4.12849,-5.0287 4.78035,5.0287 -6.08394,0 -1.73831,-1.96775 z m 4.56306,-4.59142 9.34327,9.61997 -6.08393,0 -6.30138,-6.55917 z m 38.46315,-27.78386 h 4.12849 l -2.17289,2.18639 z m 5.64951,-62.091986 0,58.813916 -9.99513,-10.057248 0,-38.699118 z m -5.43222,-1.093181 3.69391,0 -1.9556,1.749113 z m 0.43458,3.279587 -3.04204,3.060947 -6.51867,-6.340382 6.08409,0 z m -4.56307,4.591421 -2.17289,2.18639 -1.73831,0 -9.99513,-10.057246 6.08408,0 z m -2.39017,41.104148 -19.12143,0 0,-36.950006 19.12143,0 z m -4.56307,-38.917758 -6.08409,0 -9.99514,-10.057246 6.08409,0 z m -9.12598,0 -5.8668,0 -9.99514,-10.057246 6.08409,0 z m -7.38767,74.117129 0,5.90326 -9.99514,-9.83861 0,-6.12174 z m -9.99514,-64.497009 9.99514,9.838607 0,6.121743 -9.99514,-9.838607 z m 9.99514,25.143495 -9.99514,-10.057246 0,-6.121742 9.99514,10.057246 z m -9.99514,-34.326336 9.99514,10.057246 0,6.121742 -9.99514,-10.057246 z m 1.9556,47.22604 -1.9556,1.96775 0,-3.71686 z m -1.9556,-4.81006 0,-6.12174 6.30138,6.55902 -3.04205,2.84231 z m 0,-8.964048 0,-6.121743 9.99514,9.838607 0,1.967752 -2.17289,2.186391 z m 9.99514,-26.45533 -9.99514,-9.838607 0,-6.121742 9.99514,9.838607 z m -9.99514,65.590208 9.99514,10.05725 0,6.12189 -9.99514,-10.05725 z m 0,-18.14704 9.99514,10.05724 0,6.12174 -9.99514,-10.05724 z m 38.02555,1.96775 -3.04204,3.06095 -6.73596,-6.77766 6.08409,0 z m -2.82475,33.67042 -0.65185,0 0.43457,-0.43728 z m 4.12849,-5.0287 4.99764,5.0287 -6.08409,0 -1.73831,-1.96775 z m 4.56306,-4.59142 9.34327,9.61997 -6.08409,0 -6.30122,-6.55918 z m 1.30372,-7.87086 9.77785,10.05725 0,6.12189 -9.77785,-10.05724 z m 0,-8.96405 9.77785,10.05725 0,5.90325 -9.77785,-9.8386 z m 0,-9.18269 9.77785,10.05725 0,6.12174 -9.77785,-10.05725 z m 0,-8.96405 9.77785,9.83861 0,6.12174 -9.77785,-9.83861 z m 0,-9.182689 9.77785,10.057249 0,6.12174 -9.77785,-10.05725 z m 0,-8.964051 9.77785,9.838607 0,6.121743 -9.77785,-9.838607 z m 0,-9.18269 9.77785,10.057246 0,6.121743 -9.77785,-10.057246 z m 0,-8.964051 9.77785,9.838608 0,6.121742 -9.77785,-9.838607 z m 0,-9.182689 9.77785,10.057246 0,6.121742 -9.77785,-10.057246 z m 0,-8.964051 9.77785,9.838607 0,6.121743 -9.77785,-9.838608 z m 3.25933,-5.903256 6.51852,6.77766 0,6.121743 -9.56056,-9.838607 z m 3.04205,-3.060947 c 0.77401,0.983967 1.45303,2.022564 2.03708,3.115607 0.58388,1.093287 0.99129,2.241051 1.22224,3.443566 l -4.78036,-4.81006 z m -10.42972,-4.81006 c 1.74284,0.01382 3.3633,0.3144 4.86184,0.901871 1.4983,0.587699 2.84724,1.380251 4.04701,2.3777 l -6.51867,6.77766 h -44.10964 l -6.51852,-6.55902 c 1.20864,-1.102184 2.59389,-1.95849 4.15565,-2.56901 1.56176,-0.610246 3.21859,-0.919984 4.97048,-0.929201 h 39.112 z m -43.24049,11.58772 0,89.640504 -9.77784,10.05725 0,-97.074237 c 0.0136,-1.762625 0.31233,-3.429748 0.8963,-5.001369 0.58395,-1.571316 1.3716,-2.965141 2.36301,-4.181472 z m 3.47663,63.841094 6.08409,0 9.77784,10.05725 -6.08408,0 z m 18.03497,0 6.08409,0 8.03954,8.30814 -1.73831,1.74911 -2.60747,0 z"
     inkscape:connector-curvature="0" />
  <path
     style="font-size:40px;font-style:normal;font-weight:normal;line-height:125%;letter-spacing:0px;word-spacing:0px;fill:#000000;font-family:Sans"
     id="path3084"
     d="m 255.59841,123.82894 -19.12142,0 0,-64.278379 19.12142,0 0,18.147045 26.07467,-6.121743 0,-22.082548 c -0.11332,-4.595824 -1.67946,-8.412898 -4.69887,-11.45107 -3.01942,-3.038021 -6.81292,-4.614044 -11.38036,-4.72807 h -39.112 c -4.56759,0.113996 -8.36094,1.690049 -11.38035,4.72807 -3.01941,3.038172 -4.5857,6.855246 -4.69888,11.45107 v 84.393165 c 0.11318,4.59598 1.67947,8.4129 4.69888,11.45108 3.01941,3.03817 6.81276,4.61419 11.38035,4.72807 h 39.112 c 4.56744,-0.11388 8.36094,-1.6899 11.38036,-4.72807 3.01925,-3.03818 4.58555,-6.8551 4.69887,-11.45108 V 96.71784 l -26.07467,6.12174 z m 18.90413,20.77071 c -0.54782,0.53747 -1.1363,0.99297 -1.76547,1.36646 -0.62929,0.37351 -1.27209,0.71969 -1.92844,1.03854 l -8.90869,-8.96405 h 6.08409 l 6.51866,6.55917 z m -16.94853,-39.1364 9.99514,5.24734 0,24.0503 -9.99514,-10.05725 z m 1.9556,-1.31182 17.81769,-4.15414 -8.90869,8.74541 z m 19.99058,27.54853 0,2.18639 c 0.009,0.55571 -0.009,1.13874 -0.0543,1.74911 -0.0453,0.61038 -0.1721,1.19341 -0.38024,1.74911 l -9.34328,-9.61996 v -6.12175 z m -9.77785,-19.24024 9.77785,10.05724 0,6.12175 -9.77785,-10.05725 z m 3.47662,-5.46598 6.30123,6.34038 0,6.12174 -9.34327,-9.40132 z m 4.56307,-4.59142 1.73831,1.96775 0,6.12174 -4.78036,-5.0287 z m 1.73831,-1.74911 0,0.6559 -0.21727,-0.43728 z m -13.68905,35.20089 -39.76387,0 9.99514,-10.05725 19.77329,0 z m -42.37133,11.80636 c -1.19056,-0.31885 -2.28606,-0.71967 -3.2865,-1.2025 -1.00043,-0.48281 -1.93296,-1.10229 -2.79759,-1.85843 l 1.52102,-1.53048 z m 0,-9.18269 9.34327,9.61997 -6.08394,0 -6.30138,-6.55918 z m 11.08158,-73.461216 -9.99514,-9.838607 0,-6.121743 9.99514,9.838607 z m -9.99514,62.747896 0,-6.12174 6.30138,6.34038 -3.04204,3.06095 z m 0,-33.451777 9.99514,10.057247 0,6.12174 -9.99514,-10.05724 z m 9.99514,25.143497 -9.99514,-9.83861 0,-6.12174 9.99514,9.83861 z m -9.99514,-34.107699 9.99514,9.838607 0,6.121742 -9.99514,-9.838607 z m 0,-9.18269 9.99514,10.057246 0,6.121743 -9.99514,-10.057246 z m 0,-8.964051 9.99514,9.838607 0,6.121743 -9.99514,-9.838607 z m 0,-9.18269 9.99514,10.057246 0,6.121743 -9.99514,-10.057246 z m 0,60.56151 0,-6.12174 9.99514,10.05724 0,1.96775 -2.17289,1.96776 z m 1.9556,13.99275 -1.9556,1.74911 0,-3.71686 z m 5.43222,5.46598 9.77785,10.05724 -6.08409,0 -9.77784,-10.05724 z m 8.9087,0 9.99514,10.05724 -6.08409,0 -9.99514,-10.05724 z m 9.12598,0 9.77785,10.05724 -6.08394,0 -9.77785,-10.05724 z m -23.90178,-90.515068 6.08409,0 9.77785,10.057246 -5.8668,0 z m 24.98822,10.057246 -6.08408,0 -9.99514,-10.057246 6.08409,0 z m -6.95309,-10.057246 6.08409,0 7.82225,7.870856 -2.17289,2.18639 -1.73831,0 z m 35.41809,2.40503 0,6.121743 -9.56056,-9.838607 3.04204,-3.060948 z m -11.95074,-1.311819 0,15.304736 -9.99514,10.057246 0,-15.304736 z m -3.69391,21.863909 2.60747,2.623669 -4.99765,1.09318 -0.43458,-0.655902 z m 4.56307,-4.591421 5.43222,5.465977 -4.99765,1.09318 -3.47662,-3.498225 z m 9.34327,4.591421 -1.52102,0.218639 -2.39018,-2.40503 z m -8.03954,-12.462277 9.77785,10.057247 0,0.874541 -9.77785,-5.247338 z m 0,-8.96405 9.77785,9.838607 0,6.121742 -9.77785,-9.838607 z m -7.60496,-1.530474 3.69391,0 -1.9556,1.749113 z m 0.43458,3.279586 -3.04205,3.060948 -6.51866,-6.340382 6.08409,0 z m 11.95074,-8.96405 1.52102,-1.749113 c 0.77401,0.983967 1.45303,2.022563 2.03708,3.115607 0.58387,1.093286 0.99129,2.241051 1.22224,3.443566 z m -8.9087,-6.559021 c 1.74284,0.01382 3.3633,0.3144 4.86184,0.901871 1.4983,0.587699 2.84724,1.38025 4.04701,2.3777 l -6.51867,6.77766 h -44.10964 l -6.51852,-6.559021 c 1.20862,-1.102184 2.59389,-1.95849 4.15565,-2.569009 1.56176,-0.610246 3.21859,-0.919985 4.97048,-0.929201 h 39.112 z m -53.01849,14.211389 c 0.0136,-1.762626 0.31234,-3.429749 0.89631,-5.001369 0.58394,-1.571317 1.3716,-2.965141 2.36301,-4.181473 l 6.51852,6.559021 v 89.640506 l -6.51852,6.55917 c -0.99138,-1.21616 -1.77905,-2.61 -2.36301,-4.18147 -0.58398,-1.57147 -0.88274,-3.23859 -0.89631,-5.00137 V 49.492283 z m 40.19845,88.547315 6.08409,0 9.56056,9.61996 c -0.83299,0.25508 -1.77453,0.40084 -2.82476,0.43728 h -2.82475 z m 16.94853,-1.31182 0,-6.12175 8.69141,8.96406 c -0.31694,0.66047 -0.66098,1.30728 -1.03211,1.94042 -0.37126,0.63314 -0.82395,1.22529 -1.35804,1.77644 z"
     inkscape:connector-curvature="0" />
  <path
     style="font-size:40px;font-style:normal;font-weight:normal;line-height:125%;letter-spacing:0px;word-spacing:0px;fill:#000000;font-family:Sans"
     id="path3086"
     d="m 345.049,91.47035 24.77094,-58.157997 -26.94383,0 -19.12142,45.039652 -2.82475,0 0,-45.039652 -26.07467,0 0,116.751757 26.07467,0 0,-45.47693 3.04204,0 19.556,45.47693 26.29196,0 z m 2.60747,32.57722 15.6448,15.96066 2.60747,5.90325 -12.8199,-9.8386 z m 9.12598,0.21864 4.34578,10.49453 -16.07938,-16.39793 -5.43222,-11.36908 z m -24.33635,-32.577221 0.21729,-0.655917 17.38311,17.272488 4.34577,10.71316 -17.38311,-17.49112 z m 15.6448,-12.462276 -1.9556,4.154143 -6.9531,-7.214938 1.73831,-4.154143 z m -4.56307,-13.555472 7.17038,7.214938 -1.73831,4.154143 -7.17038,-7.214938 z m 2.82475,-6.340381 7.17039,7.214938 -1.9556,4.154142 -6.9531,-7.214938 z m 2.60747,-6.340382 7.17038,7.214938 -1.73831,4.154143 -7.17038,-7.214938 z m 2.82476,-6.340382 7.17038,7.214938 -1.9556,4.154143 -6.95309,-6.996299 z m 5.43222,-3.498225 4.34578,4.372781 -1.73831,4.154143 -6.30138,-6.121742 z m 5.21493,-3.716865 1.73831,1.749113 -1.73831,4.154143 -3.47662,-3.498226 z m 3.69391,-2.40503 -0.86915,1.967752 -0.86914,-0.874541 z m -20.64244,-1.749112 19.12142,0 -13.25447,9.182689 z m -14.34092,54.003854 -5.43222,-9.838607 18.03498,-42.853261 6.08409,9.401329 z m -1.52102,1.31182 -19.33871,0 9.99514,-10.057247 3.47662,0 z m -10.647,-49.849712 0,6.121742 -5.21494,-5.028699 3.04205,-3.060947 z m 0,9.182689 0,5.903256 -9.77785,-9.619968 3.04204,-3.060947 z m 0,15.085946 -9.99514,-10.057247 0,-5.903255 9.99514,9.838607 z m -9.99514,8.089494 0,-6.121743 9.99514,10.057247 0,1.967751 -2.17289,1.967752 z m 1.73831,13.99275 -1.73831,1.749113 0,-3.716865 z m -1.73831,-4.81006 0,-6.121743 6.30138,6.340382 -3.04205,3.060947 z m 0,-24.268939 9.99514,10.057246 0,5.903256 -9.99514,-9.838607 z m 9.99514,73.461214 0,6.1219 -9.99514,-10.05725 0,-6.12174 z m 0,-94.887844 0,1.311819 -0.65187,-0.655902 z m -20.42516,-1.31182 18.68685,0 -9.34328,9.401329 z m 8.25683,101.009744 -9.77785,10.05724 0,-109.536662 9.77785,10.057246 z m -7.60496,11.58772 -0.65187,0 0.21729,-0.43728 z m 4.12849,-4.81006 4.78035,4.81006 -6.08409,0 -1.73831,-1.96776 z m 4.56306,-4.59142 9.34328,9.40132 -6.08394,0 -6.30138,-6.34053 z m 1.08643,-7.87086 9.99514,9.83861 0,6.12189 -9.99514,-9.83861 z m 0,-18.14704 9.99514,9.8386 0,6.12175 -9.99514,-9.83861 z m 0,-9.18269 9.99514,10.05724 0,6.12174 -9.99514,-10.05724 z m 0,-8.964055 9.99514,10.057245 0,5.90326 -9.99514,-9.83861 z m 1.30372,-1.530473 6.08409,0 8.25683,8.089498 -0.86914,1.53047 -3.69391,0 z m 9.12598,0 6.08409,0 2.39018,2.40503 -2.17289,3.935503 z m 8.9087,0 1.08643,0 -0.43458,0.437278 z m 5.43222,-3.935504 1.73831,-4.154143 7.82225,7.870856 4.56307,10.494529 z m 2.60747,-6.340382 1.73831,-4.154142 7.17038,7.214938 -1.73831,4.154142 z m -5.21494,11.150442 20.20787,43.290542 -6.73581,9.8386 -18.90413,-43.50917 z m 22.38076,54.222492 -7.17038,0 3.04204,-4.37278 z m -3.04205,-6.12189 2.39018,-3.27959 11.95074,9.40133 -8.25683,0 z"
     inkscape:connector-curvature="0" />
  <path
     style="font-size:40px;font-style:normal;font-weight:normal;line-height:125%;letter-spacing:0px;word-spacing:0px;fill:#000000;font-family:Sans"
     id="path3088"
     d="m 404.96943,123.82894 0,-19.02161 36.06996,0 0,-26.455325 -36.06996,0 0,-18.802962 45.19609,0 0,-26.23669 -71.26925,0 0,116.751757 71.26925,0 0,-26.23669 z m -14.12363,-76.959446 0,89.640506 -9.77784,10.05725 0,-109.755305 z m 28.68214,10.713164 -6.08409,0 -9.99514,-10.057246 6.08409,0 z m -0.86914,-10.057246 9.77785,10.057246 -5.8668,0 -9.99514,-10.057246 z m 8.90869,0 9.99514,10.057246 -6.08394,0 -9.99514,-10.057246 z m 9.12598,0 9.77785,10.057246 -5.8668,0 -9.99514,-10.057246 z m 4.78036,-4.372782 6.51851,6.77766 0,6.121742 -9.56056,-9.838607 z m 4.56306,-4.372782 1.9556,1.967752 0,6.121743 -4.99764,-5.028699 z m 1.9556,-2.186391 0,1.31182 -0.43456,-0.655902 z m -55.62595,8.745412 -9.77785,-10.057246 63.66414,0 -9.77785,10.057246 z m 10.647,67.995241 0,6.12174 -9.99513,-9.83861 0,-6.12174 z m 0,-45.258294 0,6.121742 -9.99513,-10.057246 0,-6.121742 z m -8.03953,64.497014 -1.9556,1.74911 0,-3.71686 z m -1.9556,-4.81006 0,-6.12174 6.30137,6.34038 -3.04204,3.06094 z m 0,-9.18269 0,-6.12174 9.99513,10.05724 0,1.96775 -2.17288,1.96776 z m 9.99513,-8.0895 -9.99513,-10.05724 0,-6.121745 9.99513,10.057245 z m -8.03953,-23.394378 -1.9556,1.967752 0,-3.716865 z m -1.9556,-4.81006 0,-6.121743 6.30137,6.340382 -3.04204,3.060947 z m 0,-8.964051 0,-6.121743 9.99513,9.838608 0,1.967751 -2.17288,2.186391 z m 0,-18.147044 0,-6.121743 9.99513,9.838607 0,6.121743 z m -9.77785,92.701453 -0.65187,0 c 0.009,-0.009 0.0453,-0.0455 0.10865,-0.10932 0.0634,-0.0638 0.0996,-0.10021 0.10864,-0.10932 z m 4.12849,-4.81006 4.78035,4.81006 -6.08409,0 -1.73831,-1.74911 z m 4.56306,-4.59142 9.34327,9.40133 -6.08393,0 -6.30138,-6.34053 z m 8.47412,-0.43728 9.77785,9.83861 -6.08409,0 -9.77785,-9.83861 z m 8.90869,0 9.99514,9.83861 -6.08409,0 -9.99514,-9.83861 z m 9.12598,0 9.77785,9.83861 -6.08393,0 -9.77785,-9.83861 z m 8.9087,0 9.99514,9.83861 -6.08409,0 -9.99514,-9.83861 z m 9.12598,0 9.77785,9.83861 -6.08409,0 -9.77785,-9.83861 z m 4.99764,-3.9355 6.51852,6.55902 0,6.12189 -9.56056,-9.61996 z m 4.56307,-4.59142 1.9556,1.96775 0,6.12189 -4.99764,-5.02869 z m 1.9556,-0.87454 -0.65185,-0.65592 0.65185,-0.6559 z m -11.29887,7.21494 -42.15404,0 9.99513,-10.05725 41.93676,0 z m -42.37133,-43.290544 6.08409,0 9.77784,10.057244 -6.08408,0 z m 44.10964,-10.057246 0.65185,-0.437279 0,1.093181 z m 0.65185,3.716864 0,6.121743 -5.21493,-5.247338 3.04204,-3.060948 z m 0,8.964051 0,6.121745 -9.77785,-9.619971 3.04205,-3.060947 z m -1.73831,7.433575 -6.08409,0 -9.99514,-10.057244 6.08409,0 z m -9.12598,0 -6.08394,0 -9.77785,-10.057244 6.08409,0 z m -8.90869,0 -6.08409,0 -9.99514,-10.057244 6.08394,0 z m 8.25682,-12.024996 -33.02791,0 9.99514,-10.057246 33.02791,0 z m -33.02791,-43.0719 6.08409,0 9.77785,10.057246 -5.8668,0 z"
     inkscape:connector-curvature="0" />
  <path
     style="font-size:40px;font-style:normal;font-weight:normal;line-height:125%;letter-spacing:0px;word-spacing:0px;fill:#000000;font-family:Sans"
     id="path3090"
     d="m 535.47857,150.06411 -9.99514,-46.78877 c 2.7567,-1.36188 4.95675,-3.338647 6.6,-5.930583 1.6431,-2.591632 2.48509,-5.49771 2.52598,-8.718082 V 49.490279 c -0.11317,-4.49106 -1.67946,-8.244364 -4.69887,-11.259762 -3.01941,-3.015245 -6.81291,-4.582159 -11.38035,-4.70074 H 463.33881 V 150.06289 h 26.07467 V 104.8046 h 10.21242 l 8.9087,45.25829 z m -60.18751,-13.55547 -9.77785,10.05724 0,-109.536663 9.77785,10.057246 z m 57.14697,-86.360926 0,5.903256 -9.56056,-9.619968 3.04205,-3.060948 z m -19.77329,97.730156 -0.86914,0 0.43458,-0.43728 z m 3.9112,-5.0287 4.99765,5.0287 -6.08409,0 -1.9556,-1.96775 z m 4.12849,-4.37278 10.42972,9.40133 -6.51867,0 -6.51851,-6.55918 z m -1.52102,-10.93181 11.95074,11.80636 1.52102,6.9963 L 521.13901,136.29 z m -2.60747,-11.80635 11.95074,12.02499 1.73831,7.87086 -11.95073,-12.025 z m -19.77328,-22.957108 5.8668,0 2.82475,2.623669 -2.60747,3.498225 z m 8.90869,0 1.9556,0 -0.86916,1.09318 z m 8.25683,11.150438 12.16802,12.24364 1.73831,7.87086 -12.16802,-12.24364 z M 511.578,93.2184 l 11.73345,10.05725 1.9556,9.18269 -12.16803,-12.24364 z m 2.60746,-0.437278 6.51852,0 6.73596,6.559021 c -0.90544,0.874587 -1.91939,1.530477 -3.04205,1.967747 z m 6.30138,-43.946457 0,40.448231 -9.99514,-9.838607 0,-20.552074 z m 11.95074,37.605923 0,2.186391 c -0.005,0.560323 -0.0498,1.134236 -0.13581,1.721783 -0.0862,0.587638 -0.18567,1.106906 -0.29875,1.557803 l -9.56056,-9.401329 v -6.121742 z m -9.99514,-19.24024 9.99514,10.057247 0,6.121742 -9.99514,-10.057246 z m 0,-8.96405 9.99514,10.057246 0,5.903255 -9.99514,-9.838607 z m 0,-9.18269 9.99514,10.057246 0,6.121743 -9.99514,-10.057247 z m -7.38767,-1.31182 3.69391,0 -1.9556,1.749113 z m 0.21729,3.279587 -2.82476,3.060947 -6.51866,-6.340382 6.08409,0 z m -4.34578,4.591421 -2.17289,1.967751 -1.9556,0 -9.77785,-9.838607 6.08409,0 z m -2.60746,22.957104 -18.90414,0 0,-18.802962 18.90414,0 z m -4.34578,-20.989353 -6.08409,0 -9.99514,-9.838607 6.08409,0 z m -9.12598,0 -6.08409,0 -9.77785,-9.838607 6.08409,0 z m -7.38768,10.713164 0,5.903255 -9.99513,-9.838607 0,-6.121743 z m 0,63.403819 0,6.12174 -9.99513,-10.05725 0,-6.12174 z m -9.99513,-19.0216 9.99513,9.8386 0,6.12175 -9.99513,-9.83861 z m 1.73831,-25.362137 -1.73831,1.749113 0,-3.716865 z m -1.73831,-4.81006 0,-6.121742 6.30137,6.340381 -3.04204,3.060948 z m 0,-9.18269 0,-6.121742 9.99513,10.057246 0,1.967752 -2.17288,1.967752 z m 9.99513,-8.089494 -9.99513,-10.057246 0,-6.121743 9.99513,10.057246 z m -19.77328,82.862701 -0.86916,0 0.43458,-0.43728 z m 4.12848,-4.81006 4.78036,4.81006 -6.08409,0 -1.73831,-1.96776 z m 4.56307,-4.59143 9.34327,9.40133 -6.08394,0 -6.30137,-6.34053 z m 1.08643,-7.87085 9.99514,9.83861 0,6.12189 -9.99514,-9.83861 z m 0,-27.32989 9.99514,10.05725 0,6.12174 -9.99514,-10.05724 z m 9.99514,6.9963 -9.99514,-9.83861 0,-6.121738 9.99514,9.838608 z m 21.29431,-29.953553 9.99514,10.057246 -39.76387,0 9.77785,-10.057246 z m -14.99278,12.243637 7.82225,7.870856 -1.73832,1.96775 -2.17288,0 -9.99514,-9.838606 z m 15.86209,0.874541 9.56056,43.290535 -9.34328,9.83861 -8.25682,-42.85326 z m 12.81989,-2.186391 0,-6.121742 8.90869,8.96405 c -0.68814,1.348305 -1.48485,2.58723 -2.39018,3.716865 z m 4.99764,-49.631073 1.52103,-1.530473 c 1.52087,1.749264 2.60731,3.935503 3.25933,6.55902 z m -6.73595,3.716865 -43.89236,0 -9.77785,-10.057246 51.49747,0 c 1.74284,0.01382 3.3633,0.314399 4.86184,0.901871 1.4983,0.587698 2.84724,1.38025 4.047,2.3777 z m -41.93676,47.226043 5.8668,0 9.99514,9.838611 -6.08409,0 z"
     inkscape:connector-curvature="0" />
  <path
     style="font-size:40px;font-style:normal;font-weight:normal;line-height:125%;letter-spacing:0px;word-spacing:0px;fill:#000000;font-family:Sans"
     id="path3092"
     d="m 574.72637,78.352005 0,-18.802962 18.90414,0 0,8.964051 26.29195,-6.121743 0,-13.118193 c -0.11317,-4.49106 -1.67946,-8.244364 -4.69887,-11.259761 -3.01941,-3.015246 -6.81291,-4.582159 -11.38036,-4.700741 h -39.11199 c -4.5676,0.118536 -8.36095,1.685495 -11.38036,4.700741 -3.01941,3.015397 -4.5857,6.768701 -4.69887,11.259761 v 39.136397 c 0.11317,4.595975 1.67946,8.41305 4.69887,11.45107 3.01941,3.038175 6.81276,4.614195 11.38036,4.728075 h 28.89942 v 19.0216 h -18.90414 v -9.40133 l -26.07466,6.34038 v 13.33683 c 0.11317,4.50032 1.67946,8.28991 4.69887,11.36908 3.01941,3.07917 6.81276,4.68252 11.38035,4.81006 h 39.112 c 4.56745,-0.12754 8.36095,-1.73089 11.38036,-4.81006 3.01926,-3.07917 4.58555,-6.86876 4.69887,-11.36908 V 94.531145 c -0.11317,-4.595824 -1.67946,-8.412898 -4.69887,-11.45107 -3.01941,-3.03802 -6.81291,-4.614044 -11.38036,-4.72807 z m 38.02556,66.246125 c -0.54783,0.44639 -1.1363,0.86545 -1.76547,1.25716 -0.6293,0.39173 -1.27209,0.70145 -1.92844,0.9292 l -8.9087,-8.96405 h 5.8668 l 6.73596,6.77781 z m -16.94853,-40.66687 9.99513,-9.838607 0,40.448227 -9.99513,-10.05724 z m 4.34577,-11.369081 4.12849,0 -2.17289,1.967752 z m 0.43458,3.498225 -2.82475,3.060948 -6.73596,-6.559021 6.08409,0 z m 17.16582,35.419536 0,2.40503 c -0.0362,1.09319 -0.18113,2.18639 -0.43456,3.27958 l -9.56056,-9.61997 v -6.12174 z m -9.99514,-19.0216 9.99514,9.8386 0,6.12175 -9.99514,-9.83861 z m 0,-9.18269 9.99514,10.05724 0,6.12174 -9.99514,-10.05724 z m 0,-8.964055 9.99514,9.838605 0,6.12175 -9.99514,-9.83861 z m 3.47663,-5.684616 6.51851,6.559021 0,6.12174 -9.56056,-9.619966 z m 3.25933,-3.279586 c 0.76496,0.888282 1.40776,1.899427 1.92844,3.033617 0.5205,1.134236 0.8917,2.309375 1.11359,3.525555 l -4.78036,-4.81006 z m -10.647,-5.028699 c 1.73831,0.0091 3.36782,0.318909 4.889,0.929201 1.52087,0.610428 2.93324,1.466749 4.23713,2.569009 l -6.51867,6.559021 h -42.15404 l 9.77785,-10.057246 h 29.76857 z M 561.47205,102.1826 c -1.08644,-0.3188 -2.11856,-0.71962 -3.09636,-1.2025 -0.9778,-0.48276 -1.90128,-1.102242 -2.77044,-1.85843 l 1.52103,-1.530473 z m 0.21729,-9.182687 9.34327,9.401327 -6.08393,0 -6.30138,-6.34038 z m 11.08158,-27.985804 -9.99513,-10.057246 0,-6.121742 9.99513,10.057246 z m -9.99513,17.272488 0,-6.121742 6.30137,6.340381 -3.04204,3.060948 z m 9.99513,-14.211389 0,5.903256 -9.99513,-9.838607 0,-6.121743 z m -9.99513,5.028699 0,-6.121742 9.99513,10.057246 0,1.967752 -2.17288,1.967752 z m 1.73831,13.99275 -1.73831,1.749113 0,-3.716865 z m 5.43222,5.465977 9.99514,9.838606 -6.08409,0 -9.77785,-9.838606 z m 9.12598,0 9.99514,9.838606 -6.08409,0 -9.99514,-9.838606 z m -14.77549,-45.039652 6.08409,0 9.77785,9.838607 -6.08409,0 z m 24.98822,9.838607 -6.08409,0 -9.99514,-9.838607 6.08409,0 z m -6.95309,-9.838607 6.08409,0 7.82224,7.870856 -2.17288,1.967751 -1.9556,0 z m 35.41809,2.40503 0,5.903256 -9.56056,-9.619968 3.04204,-3.060948 z m -11.95074,-1.311819 0,6.121743 -9.99514,10.057246 0,-6.121743 z m -3.69391,12.680915 2.60746,2.623669 -4.99764,1.093181 -0.65187,-0.655903 z m 4.56306,-4.591421 5.21494,5.465978 -4.78036,1.09318 -3.47662,-3.498226 z m 9.12599,4.591421 -1.30372,0.218639 -2.60747,-2.40503 z m -8.03954,-12.462276 9.99514,10.057246 0,0.874541 -9.99514,-5.247338 z m -7.38767,-1.311819 3.69391,0 -1.9556,1.749112 z m 0.21729,3.279586 -2.82476,3.060947 -6.51867,-6.340381 6.08409,0 z m 12.16802,-9.18269 1.52102,-1.530473 c 1.52088,1.749264 2.60732,3.935503 3.25934,6.55902 z m -8.90869,-6.340382 c 1.74284,0.01382 3.3633,0.3144 4.86184,0.901871 1.49829,0.587699 2.84724,1.380251 4.047,2.377701 l -6.73595,6.777659 h -43.89236 l -6.51851,-6.55902 c 1.20862,-1.102184 2.59388,-1.95849 4.15565,-2.56901 1.56176,-0.610246 3.21859,-0.919984 4.97048,-0.929201 h 39.112 z m -53.01849,13.99275 c 0.0136,-1.657861 0.31234,-3.261214 0.8963,-4.81006 0.58395,-1.548541 1.37161,-2.933256 2.36302,-4.154142 l 6.51851,6.55902 v 44.165096 l -6.51851,6.559021 c -0.99138,-1.216119 -1.77905,-2.609852 -2.36302,-4.181473 -0.58398,-1.571468 -0.88273,-3.238439 -0.8963,-5.001369 V 49.271974 z m 31.2896,43.29054 5.8668,0 8.25683,8.089493 -1.9556,1.74911 -2.39018,0 z m 21.94618,43.290543 -39.76387,0 9.77785,-10.05725 19.99058,0 z m -42.58862,11.58772 c -2.17289,-0.47371 -4.12849,-1.49401 -5.86665,-3.06095 l 1.52102,-1.31182 z m 0.21728,-8.96405 9.34328,9.40132 -6.08394,0 -6.30138,-6.34053 z m 1.30372,-10.49453 3.04205,-3.06095 3.04204,3.06095 -3.04204,2.84231 z m 4.56307,-4.59142 3.04204,-3.06095 2.17289,1.96775 0,1.96776 -2.17289,2.18639 z m 4.56307,-4.59142 0.65186,-0.6559 0,1.31182 z m -19.556,2.84231 17.81768,-4.15415 -8.90869,8.96406 z m 11.95073,10.71316 -1.73831,1.96775 0,-3.71686 z m 5.43223,5.46598 9.99513,10.05724 -6.08408,0 -9.77785,-10.05724 z m 9.12598,0 9.99514,10.05724 -6.08409,0 -9.99514,-10.05724 z m 8.90869,0 9.99514,10.05724 -6.08394,0 -9.77785,-10.05724 z m -27.3784,-9.40133 0,7.87085 -6.51851,6.55903 c -0.99138,-1.20706 -1.77906,-2.56446 -2.36302,-4.07216 -0.58398,-1.50767 -0.88274,-3.13838 -0.8963,-4.89205 v -10.9318 z m 30.42045,9.40133 6.08409,0 9.56056,9.61997 c -0.4437,0.11387 -0.91449,0.21408 -1.41237,0.30062 -0.49801,0.0865 -0.96879,0.1321 -1.41236,0.13665 h -2.82476 z m 16.73124,-1.09318 0,-6.12175 8.90869,8.74542 c -0.68814,1.34827 -1.48485,2.58723 -2.39017,3.71686 z"
     inkscape:connector-curvature="0" />
  <path
     style="font-size:40px;font-style:normal;font-weight:normal;line-height:125%;letter-spacing:0px;word-spacing:0px;fill:#000000;font-family:Sans"
     id="path3094"
     d="m 704.37541,49.493163 c -0.11317,-4.595824 -1.67946,-8.412898 -4.69887,-11.45107 -3.01941,-3.03802 -6.81292,-4.614044 -11.38036,-4.72807 H 633.10481 V 150.06578 h 26.07466 v -45.47693 h 29.11671 c 4.56744,-0.11383 8.36095,-1.6899 11.38036,-4.728073 3.01926,-3.038021 4.58555,-6.855095 4.69887,-11.451071 V 49.491949 z m -19.77329,43.071901 5.8668,0 6.73596,6.77766 c -1.12272,0.838166 -2.35397,1.566916 -3.69392,2.186386 z m -11.08158,10.057246 -6.08409,0 -9.99514,-10.057246 3.9112,0 2.17289,0 z m -1.08643,-10.057246 9.99514,10.057246 -6.08394,0 -9.77785,-10.057246 z m -23.68449,-2.186391 9.77785,-9.838607 19.99058,0 9.99513,9.838607 -27.16111,0 z m -3.69391,-43.509179 0,89.421866 -9.77785,10.05725 0,-109.536665 z m 39.76387,0.655902 3.69391,0 -1.9556,1.749113 z m 0.21728,3.279587 -2.82475,3.060947 -6.51867,-6.340382 6.08409,0 z m -4.34577,4.591421 -2.17289,1.967751 -1.9556,0 -9.77785,-9.838607 6.08409,0 z m -2.60747,22.957104 -18.90413,0 0,-18.802962 18.90413,0 z m -4.34578,-20.989353 -6.08409,0 -9.99513,-9.838607 6.08408,0 z m -9.12598,0 -6.08409,0 -9.77785,-9.838607 6.08409,0 z m -7.38767,71.056185 -9.99514,-9.83861 0,-6.12174 9.99514,10.05725 z m 0,-54.441132 -9.99514,-9.838607 0,-6.121743 9.99514,10.057246 z m 0,57.502082 0,6.12189 -9.99514,-10.05724 0,-6.12175 z m -8.25683,-44.383737 -1.73831,1.749113 0,-3.716865 z m -1.73831,-4.81006 0,-6.121742 6.30138,6.340381 -3.04205,3.060947 z m 0,-9.18269 0,-6.121742 9.99514,10.057246 0,1.967752 -2.17289,1.967751 z m 9.99514,-8.089494 -9.99514,-10.057246 0,-6.121743 9.99514,10.057246 z M 637.4509,147.878 l -0.65187,0 0.21729,-0.43727 z m 4.12849,-4.81006 4.78035,4.81006 -6.08408,0 -1.73832,-1.74911 z m 4.56307,-4.59142 9.34327,9.40133 -6.08394,0 -6.30138,-6.34053 z m 1.08642,-7.87085 9.99514,10.05724 0,5.90326 -9.99514,-9.83861 z m 0,-27.32989 9.99514,10.05725 0,6.12174 -9.99514,-10.05724 z m 9.99514,6.9963 -9.99514,-9.83861 0,-6.121738 9.99514,10.057248 z m 23.03262,-51.598823 9.99514,-10.057246 0,40.66687 -9.99514,-10.057246 z m 21.94618,27.548525 0,2.186391 c -0.0362,1.27544 -0.18113,2.44147 -0.43456,3.498225 L 692.2077,82.28643 v -6.121742 z m -9.99514,-19.24024 9.99514,10.057247 0,6.121742 -9.99514,-10.057246 z m 0,-8.96405 9.99514,10.057246 0,5.903255 -9.99514,-9.838607 z m 0,-9.18269 9.99514,10.057246 0,6.121743 -9.99514,-10.057247 z m 3.47663,-5.684617 6.51851,6.77766 0,5.903256 -9.56056,-9.619968 z m 3.04204,-3.060947 c 1.52087,1.749265 2.60732,3.935504 3.25933,6.559021 l -4.78035,-5.028699 z m -8.25683,5.247338 -43.89235,0 -9.77785,-10.057246 51.49747,0 c 1.74283,0.01382 3.3633,0.3144 4.86183,0.901871 1.4983,0.587699 2.84724,1.38025 4.04701,2.3777 z m -41.93675,47.226043 5.8668,0 9.99514,10.057251 -6.08409,0 z m 26.94382,0 6.08409,0 9.56056,9.619971 c -0.44369,0.11392 -0.91448,0.21411 -1.41236,0.30061 -0.49802,0.0866 -0.96879,0.13214 -1.41237,0.13665 h -2.82475 z m 16.73124,-1.311819 0,-6.121743 8.9087,8.964051 c -0.68814,1.348305 -1.48485,2.587229 -2.39018,3.716865 z"
     inkscape:connector-curvature="0" />
  <path
     style="font-size:40px;font-style:normal;font-weight:normal;line-height:125%;letter-spacing:0px;word-spacing:0px;fill:#000000;font-family:Sans"
     id="path3096"
     d="m 788.83137,49.493163 c -0.11332,-4.595824 -1.67946,-8.412898 -4.69887,-11.45107 -3.01941,-3.03802 -6.81291,-4.614044 -11.38035,-4.72807 h -39.112 c -4.5676,0.113996 -8.36095,1.69005 -11.38036,4.72807 -3.01941,3.038172 -4.5857,6.855246 -4.69887,11.45107 V 150.06563 h 26.07467 v -27.11125 h 19.12142 v 27.11125 h 26.07467 z m -14.12362,62.747897 0,24.26894 -9.99514,10.05725 0,-24.48758 z m -16.73125,8.52678 -6.08409,0 -9.99513,-10.05725 6.08393,0 z m -14.77549,-22.082552 19.77329,0 9.99514,10.057242 -39.76387,0 z m -21.29431,49.412432 -0.65187,0 0.21729,-0.43728 z m 4.12849,-5.0287 4.78035,5.0287 -6.08409,0 -1.73831,-1.96775 z m 4.56306,-4.59142 9.34328,9.61997 -6.08394,0 -6.30138,-6.55917 z m 38.46014,-27.76716 4.12849,0 -2.17289,2.18639 z m 5.64951,-62.091985 0,58.813915 -9.99514,-10.057246 0,-38.699119 z m -5.43222,-1.09318 3.69391,0 -1.9556,1.749113 z m 0.43457,3.279586 -3.04204,3.060948 -6.51867,-6.340382 6.08409,0 z m -4.56306,4.591421 -2.17289,2.186391 -1.73831,0 -9.99514,-10.057246 6.08409,0 z m -2.39018,41.104149 -19.12142,0 0,-36.950006 19.12142,0 z m -4.56307,-38.917758 -6.08409,0 -9.99513,-10.057246 6.08408,0 z m -9.12598,0 -5.8668,0 -9.99514,-10.057246 6.08409,0 z m -7.38767,74.117137 0,5.90325 -9.99514,-9.83861 0,-6.12174 z m -9.99514,-64.497017 9.99514,9.838607 0,6.121743 -9.99514,-9.838607 z m 9.99514,25.143495 -9.99514,-10.057246 0,-6.121743 9.99514,10.057246 z m -9.99514,-34.326337 9.99514,10.057246 0,6.121743 -9.99514,-10.057246 z m 1.9556,47.226039 -1.9556,1.96776 0,-3.71687 z m -1.9556,-4.81006 0,-6.121738 6.30138,6.559018 -3.04205,2.84231 z m 0,-8.964046 0,-6.121743 9.99514,9.838607 0,1.967752 -2.17289,2.186391 z m 9.99514,-26.45533 -9.99514,-9.838607 0,-6.121743 9.99514,9.838607 z m -9.99514,65.590206 9.99514,10.05725 0,6.12189 -9.99514,-10.05724 z m 0,-18.14704 9.99514,10.05724 0,6.12175 -9.99514,-10.05725 z m 38.02556,1.96775 -3.04205,3.06095 -6.73595,-6.77766 6.08409,0 z m -2.82476,33.67042 -0.65185,0 0.43458,-0.43728 z m 4.12849,-5.0287 4.99764,5.0287 -6.08408,0 -1.73832,-1.96775 z m 4.56307,-4.59142 9.34327,9.61997 -6.08409,0 -6.30123,-6.55918 z m 1.30371,-7.87086 9.77785,10.05725 0,6.12189 -9.77785,-10.05724 z m 0,-8.96405 9.77785,10.05725 0,5.90325 -9.77785,-9.8386 z m 0,-9.18269 9.77785,10.05725 0,6.12174 -9.77785,-10.05724 z m 0,-8.96405 9.77785,9.83861 0,6.12174 -9.77785,-9.83861 z m 0,-9.182687 9.77785,10.057247 0,6.12174 -9.77785,-10.05724 z m 0,-8.964051 9.77785,9.838607 0,6.121741 -9.77785,-9.838606 z m 0,-9.18269 9.77785,10.057246 0,6.121743 -9.77785,-10.057247 z m 0,-8.964051 9.77785,9.838607 0,6.121743 -9.77785,-9.838607 z m 0,-9.18269 9.77785,10.057246 0,6.121743 -9.77785,-10.057246 z m 0,-8.964051 9.77785,9.838608 0,6.121742 -9.77785,-9.838607 z m 3.25934,-5.903255 6.51851,6.77766 0,6.121743 -9.56056,-9.838608 z m 3.04204,-3.060947 c 0.77402,0.983967 1.45303,2.022563 2.03709,3.115607 0.58387,1.093286 0.99129,2.24105 1.22223,3.443565 l -4.78035,-4.810059 z m -10.42971,-4.81006 c 1.74283,0.01382 3.3633,0.3144 4.86184,0.901871 1.49829,0.587699 2.84723,1.38025 4.047,2.3777 l -6.51867,6.77766 h -44.10964 l -6.51852,-6.559021 c 1.20863,-1.102184 2.59389,-1.95849 4.15565,-2.569009 1.56177,-0.610246 3.2186,-0.919985 4.97049,-0.929201 h 39.112 z m -43.24049,11.58772 0,89.640512 -9.77785,10.05724 0,-97.074235 c 0.0136,-1.762626 0.31234,-3.429749 0.8963,-5.001369 0.58395,-1.571317 1.37161,-2.965141 2.36302,-4.181473 z m 3.47662,63.841092 6.08409,0 9.77785,10.05725 -6.08409,0 z m 18.03498,0 6.08409,0 8.03953,8.30814 -1.73831,1.74911 -2.60746,0 z"
     inkscape:connector-curvature="0" />
  <path
     style="font-size:40px;font-style:normal;font-weight:normal;line-height:125%;letter-spacing:0px;word-spacing:0px;fill:#000000;font-family:Sans"
     id="path3098"
     d="m 847.21267,123.82894 -19.12142,0 0,-64.278379 19.12142,0 0,18.147045 26.07467,-6.121743 0,-22.082548 c -0.11332,-4.595824 -1.67946,-8.412898 -4.69887,-11.45107 -3.01941,-3.038021 -6.81292,-4.614044 -11.38036,-4.72807 h -39.112 c -4.56759,0.113996 -8.36094,1.690049 -11.38035,4.72807 -3.01941,3.038172 -4.5857,6.855246 -4.69887,11.45107 v 84.393165 c 0.11317,4.59598 1.67946,8.4129 4.69887,11.45108 3.01941,3.03817 6.81276,4.61419 11.38035,4.72807 h 39.112 c 4.56744,-0.11388 8.36095,-1.6899 11.38036,-4.72807 3.01926,-3.03818 4.58555,-6.8551 4.69887,-11.45108 V 96.71784 l -26.07467,6.12174 z m 18.90414,20.77071 c -0.54783,0.53747 -1.1363,0.99297 -1.76548,1.36646 -0.62929,0.37351 -1.27209,0.71969 -1.92844,1.03854 l -8.90869,-8.96405 h 6.08409 l 6.51867,6.55917 z m -16.94854,-39.1364 9.99514,5.24734 0,24.0503 -9.99514,-10.05725 z m 1.9556,-1.31182 17.81769,-4.15414 -8.90869,8.74541 z m 19.99058,27.54853 0,2.18639 c 0.009,0.55571 -0.009,1.13874 -0.0543,1.74911 -0.0453,0.61038 -0.1721,1.19341 -0.38024,1.74911 l -9.34327,-9.61996 v -6.12175 z m -9.77785,-19.24024 9.77785,10.05724 0,6.12175 -9.77785,-10.05725 z m 3.47662,-5.46598 6.30123,6.34038 0,6.12174 -9.34327,-9.40132 z m 4.56307,-4.59142 1.73831,1.96775 0,6.12174 -4.78035,-5.0287 z m 1.73831,-1.74911 0,0.6559 -0.21727,-0.43728 z m -13.68905,35.20089 -39.76386,0 9.99513,-10.05725 19.77329,0 z m -42.37133,11.80636 c -1.19056,-0.31885 -2.28606,-0.71967 -3.2865,-1.2025 -1.00043,-0.48281 -1.93296,-1.10229 -2.79759,-1.85843 l 1.52102,-1.53048 z m 0,-9.18269 9.34327,9.61997 -6.08394,0 -6.30138,-6.55918 z m 11.08158,-73.461216 -9.99514,-9.838607 0,-6.121743 9.99514,9.838607 z m -9.99514,62.747896 0,-6.12174 6.30138,6.34038 -3.04204,3.06095 z m 0,-33.451777 9.99514,10.057247 0,6.12174 -9.99514,-10.05724 z m 9.99514,25.143497 -9.99514,-9.83861 0,-6.12174 9.99514,9.83861 z m -9.99514,-34.107699 9.99514,9.838607 0,6.121742 -9.99514,-9.838607 z m 0,-9.18269 9.99514,10.057246 0,6.121743 -9.99514,-10.057246 z m 0,-8.964051 9.99514,9.838607 0,6.121743 -9.99514,-9.838607 z m 0,-9.18269 9.99514,10.057246 0,6.121743 -9.99514,-10.057246 z m 0,60.56151 0,-6.12174 9.99514,10.05724 0,1.96775 -2.17289,1.96776 z m 1.9556,13.99275 -1.9556,1.74911 0,-3.71686 z m 5.43223,5.46598 9.77784,10.05724 -6.08408,0 -9.77785,-10.05724 z m 8.90869,0 9.99514,10.05724 -6.08409,0 -9.99514,-10.05724 z m 9.12598,0 9.77785,10.05724 -6.08394,0 -9.77785,-10.05724 z m -23.90178,-90.515068 6.08409,0 9.77785,10.057246 -5.8668,0 z m 24.98823,10.057246 -6.08409,0 -9.99514,-10.057246 6.08409,0 z m -6.9531,-10.057246 6.08409,0 7.82225,7.870856 -2.17289,2.18639 -1.73831,0 z m 35.41809,2.40503 0,6.121743 -9.56056,-9.838607 3.04205,-3.060948 z m -11.95074,-1.311819 0,15.304736 -9.99513,10.057246 0,-15.304736 z m -3.69391,21.863909 2.60747,2.623669 -4.99765,1.09318 -0.43457,-0.655902 z m 4.56307,-4.591421 5.43222,5.465977 -4.99764,1.09318 -3.47663,-3.498225 z m 9.34327,4.591421 -1.52102,0.218639 -2.39018,-2.40503 z m -8.03954,-12.462277 9.77785,10.057247 0,0.874541 -9.77785,-5.247338 z m 0,-8.96405 9.77785,9.838607 0,6.121742 -9.77785,-9.838607 z m -7.60496,-1.530474 3.69391,0 -1.9556,1.749113 z m 0.43458,3.279586 -3.04204,3.060948 -6.51867,-6.340382 6.08409,0 z m 11.95074,-8.96405 1.52102,-1.749113 c 0.77402,0.983967 1.45303,2.022563 2.03708,3.115607 0.58388,1.093286 0.99129,2.241051 1.22224,3.443566 z m -8.9087,-6.559021 c 1.74284,0.01382 3.3633,0.3144 4.86184,0.901871 1.4983,0.587699 2.84724,1.38025 4.04701,2.3777 l -6.51867,6.77766 h -44.10964 l -6.51852,-6.559021 c 1.20863,-1.102184 2.59389,-1.95849 4.15565,-2.569009 1.56177,-0.610246 3.21859,-0.919985 4.97049,-0.929201 h 39.112 z m -53.01848,14.211389 c 0.0136,-1.762626 0.31233,-3.429749 0.8963,-5.001369 0.58395,-1.571317 1.3716,-2.965141 2.36301,-4.181473 l 6.51852,6.559021 v 89.640506 l -6.51852,6.55917 c -0.99138,-1.21616 -1.77905,-2.61 -2.36301,-4.18147 -0.58398,-1.57147 -0.88274,-3.23859 -0.8963,-5.00137 V 49.492283 z m 40.19844,88.547315 6.08409,0 9.56056,9.61996 c -0.83299,0.25508 -1.77453,0.40084 -2.82476,0.43728 h -2.82475 z m 16.94853,-1.31182 0,-6.12175 8.69141,8.96406 c -0.31694,0.66047 -0.66098,1.30728 -1.03211,1.94042 -0.37126,0.63314 -0.82395,1.22529 -1.35804,1.77644 z"
     inkscape:connector-curvature="0" />
  <path
     style="font-size:40px;font-style:normal;font-weight:normal;line-height:125%;letter-spacing:0px;word-spacing:0px;fill:#000000;font-family:Sans"
     id="path3100"
     d="m 912.53514,123.82894 0,-19.02161 36.06996,0 0,-26.455325 -36.06996,0 0,-18.802962 45.19609,0 0,-26.23669 -71.26924,0 0,116.751757 71.26924,0 0,-26.23669 z m -14.12362,-76.959446 0,89.640506 -9.77785,10.05725 0,-109.755305 z m 28.68213,10.713164 -6.08409,0 -9.99514,-10.057246 6.08409,0 z m -0.86914,-10.057246 9.77785,10.057246 -5.8668,0 -9.99514,-10.057246 z m 8.90869,0 9.99514,10.057246 -6.08394,0 -9.99513,-10.057246 z m 9.12599,0 9.77784,10.057246 -5.8668,0 -9.99513,-10.057246 z m 4.78035,-4.372782 6.51852,6.77766 0,6.121742 -9.56056,-9.838607 z m 4.56307,-4.372782 1.9556,1.967752 0,6.121743 -4.99765,-5.028699 z m 1.9556,-2.186391 0,1.31182 -0.43456,-0.655902 z m -55.62596,8.745412 -9.77785,-10.057246 63.66414,0 -9.77785,10.057246 z m 10.64701,67.995241 0,6.12174 -9.99514,-9.83861 0,-6.12174 z m 0,-45.258294 0,6.121742 -9.99514,-10.057246 0,-6.121742 z m -8.03954,64.497014 -1.9556,1.74911 0,-3.71686 z m -1.9556,-4.81006 0,-6.12174 6.30138,6.34038 -3.04205,3.06094 z m 0,-9.18269 0,-6.12174 9.99514,10.05724 0,1.96775 -2.17289,1.96776 z m 9.99514,-8.0895 -9.99514,-10.05724 0,-6.121745 9.99514,10.057245 z m -8.03954,-23.394378 -1.9556,1.967752 0,-3.716865 z m -1.9556,-4.81006 0,-6.121743 6.30138,6.340382 -3.04205,3.060947 z m 0,-8.964051 0,-6.121743 9.99514,9.838608 0,1.967751 -2.17289,2.186391 z m 0,-18.147044 0,-6.121743 9.99514,9.838607 0,6.121743 z m -9.77785,92.701453 -0.65187,0 c 0.009,-0.009 0.0453,-0.0455 0.10865,-0.10932 0.0634,-0.0638 0.0996,-0.10021 0.10864,-0.10932 z m 4.12849,-4.81006 4.78035,4.81006 -6.08408,0 -1.73831,-1.74911 z m 4.56307,-4.59142 9.34327,9.40133 -6.08394,0 -6.30138,-6.34053 z m 8.47411,-0.43728 9.77785,9.83861 -6.08409,0 -9.77785,-9.83861 z m 8.9087,0 9.99513,9.83861 -6.08409,0 -9.99513,-9.83861 z m 9.12598,0 9.77785,9.83861 -6.08394,0 -9.77785,-9.83861 z m 8.90869,0 9.99514,9.83861 -6.08409,0 -9.99514,-9.83861 z m 9.12598,0 9.77785,9.83861 -6.08409,0 -9.77785,-9.83861 z m 4.99765,-3.9355 6.51851,6.55902 0,6.12189 -9.56056,-9.61996 z m 4.56306,-4.59142 1.9556,1.96775 0,6.12189 -4.99764,-5.02869 z m 1.9556,-0.87454 -0.65185,-0.65592 0.65185,-0.6559 z m -11.29887,7.21494 -42.15404,0 9.99514,-10.05725 41.93675,0 z m -42.37133,-43.290544 6.08409,0 9.77785,10.057244 -6.08409,0 z m 44.10964,-10.057246 0.65186,-0.437279 0,1.093181 z m 0.65186,3.716864 0,6.121743 -5.21494,-5.247338 3.04205,-3.060948 z m 0,8.964051 0,6.121745 -9.77785,-9.619971 3.04204,-3.060947 z m -1.73832,7.433575 -6.08408,0 -9.99514,-10.057244 6.08409,0 z m -9.12598,0 -6.08394,0 -9.77784,-10.057244 6.08408,0 z m -8.90869,0 -6.08409,0 -9.99514,-10.057244 6.08394,0 z m 8.25683,-12.024996 -33.02792,0 9.99514,-10.057246 33.02791,0 z m -33.02792,-43.0719 6.08409,0 9.77785,10.057246 -5.8668,0 z"
     inkscape:connector-curvature="0" />
  <rect
     style="fill:#606060;fill-opacity:1"
     x="42.755035"
     y="193.71849"
     width="311.16"
     height="5.8627"
     id="rect3020" />
  <rect
     style="fill:#606060;fill-opacity:1"
     x="647.34821"
     y="193.8185"
     width="311.16"
     height="5.8627"
     id="rect3020-1" />
  <g
     line-height="125%"
     font-style="normal"
     font-size="40px"
     transform="matrix(2.3120866,0,0,2.3536056,-491.29156,-293.89018)"
     font-weight="normal"
     style="font-size:40px;font-style:normal;font-weight:normal;line-height:125%;letter-spacing:0px;word-spacing:0px;fill:#606060;font-family:Sans;fill-opacity:1"
     id="flowRoot3040">
    <path
       inkscape:connector-curvature="0"
       d="m 390.1,209.61 4.5599,-10.64 -4.9599,0 -3.52,8.2399 -0.52,0 0,-8.2399 -4.7999,0 0,21.36 4.7999,0 0,-8.3199 0.56,0 3.6,8.3199 4.8399,0 z"
       id="path3103"
       style="fill:#606060;fill-opacity:1" />
    <path
       inkscape:connector-curvature="0"
       d="m 409.6,220.33 -1.84,-8.5599 c 0.50748,-0.24916 0.91247,-0.61082 1.215,-1.085 0.30248,-0.47415 0.45748,-1.0058 0.465,-1.595 v -7.1599 c -0.0208,-0.82164 -0.30918,-1.5083 -0.86499,-2.06 -0.55584,-0.55164 -1.2542,-0.8383 -2.095,-0.85999 h -10.16 v 21.32 h 4.7999 v -8.2799 h 1.88 l 1.64,8.2799 z m -4.9999,-13.08 -3.48,0 0,-3.44 3.48,0 z"
       id="path3105"
       style="fill:#606060;fill-opacity:1" />
    <path
       inkscape:connector-curvature="0"
       d="m 425.15,201.93 c -0.0208,-0.84081 -0.30918,-1.5391 -0.86499,-2.095 -0.55584,-0.5558 -1.2542,-0.84413 -2.095,-0.86499 h -7.1999 c -0.84082,0.0209 -1.5392,0.30919 -2.095,0.86499 -0.55583,0.55585 -0.84416,1.2542 -0.86499,2.095 v 18.4 h 4.7999 v -4.9599 h 3.52 v 4.9599 h 4.7999 z m -4.7999,8.5999 -3.52,0 0,-6.7599 3.52,0 z"
       id="path3107"
       style="fill:#606060;fill-opacity:1" />
    <path
       inkscape:connector-curvature="0"
       d="m 436.81,209.61 4.5599,-10.64 -4.9599,0 -3.52,8.2399 -0.52,0 0,-8.2399 -4.7999,0 0,21.36 4.7999,0 0,-8.3199 0.56,0 3.6,8.3199 4.8399,0 z"
       id="path3109"
       style="fill:#606060;fill-opacity:1" />
    <path
       inkscape:connector-curvature="0"
       d="m 446,198.97 c -0.84083,0.0209 -1.5392,0.30919 -2.095,0.86499 -0.55583,0.55585 -0.84415,1.2542 -0.86499,2.095 v 15.44 c 0.0208,0.82332 0.30917,1.5166 0.86499,2.08 0.55583,0.56333 1.2542,0.85666 2.095,0.87999 h 7.1999 c 0.84081,-0.0233 1.5391,-0.31666 2.095,-0.87999 0.55581,-0.56333 0.84414,-1.2566 0.86499,-2.08 v -15.44 c -0.0208,-0.84081 -0.30918,-1.5391 -0.86499,-2.095 -0.55584,-0.5558 -1.2542,-0.84413 -2.095,-0.86499 z m 5.3199,16.52 -3.48,0 0,-11.72 3.48,0 z"
       id="path3111"
       style="fill:#606060;fill-opacity:1" />
    <path
       inkscape:connector-curvature="0"
       d="m 475.11,198.97 -0.24,16.52 -0.47999,0 -2.88,-16.52 -4.5599,0 -2.8,16.52 -0.55999,0 -0.2,-16.52 -4.7999,0 0.55999,21.36 8.8399,0 1.24,-7.2399 1.28,7.2399 8.8399,0 0.56,-21.36 z"
       id="path3113"
       style="fill:#606060;fill-opacity:1" />
  </g>
  <flowRoot
     xml:space="preserve"
     id="flowRoot3792"
     style="font-size:18px;font-style:normal;font-weight:normal;text-align:start;line-height:125%;letter-spacing:0px;word-spacing:0px;text-anchor:start;fill:#000000;fill-opacity:1;stroke:none;font-family:Sans;-inkscape-font-specification:Sans"><flowRegion
       id="flowRegion3794"><rect
         id="rect3796"
         width="152.35457"
         height="36.011082"
         x="90.027702"
         y="75.623268" /></flowRegion><flowPara
       id="flowPara3798" /></flowRoot></svg>
