<?xml version="1.0" encoding="UTF-8" standalone="no"?>
<!-- Created with Inkscape (http://www.inkscape.org/) -->

<svg
   xmlns:dc="http://purl.org/dc/elements/1.1/"
   xmlns:cc="http://creativecommons.org/ns#"
   xmlns:rdf="http://www.w3.org/1999/02/22-rdf-syntax-ns#"
   xmlns:svg="http://www.w3.org/2000/svg"
   xmlns="http://www.w3.org/2000/svg"
   xmlns:sodipodi="http://sodipodi.sourceforge.net/DTD/sodipodi-0.dtd"
   xmlns:inkscape="http://www.inkscape.org/namespaces/inkscape"
   id="svg2"
   height="300"
   width="1000"
   version="1.1"
   inkscape:version="0.92.2 (5c3e80d, 2017-08-06)"
   sodipodi:docname="makapaka.svg"
   inkscape:export-xdpi="9"
   inkscape:export-ydpi="9">
  <defs
     id="defs3624" />
  <sodipodi:namedview
     pagecolor="#ffffff"
     bordercolor="#666666"
     borderopacity="1"
     objecttolerance="10"
     gridtolerance="10"
     guidetolerance="10"
     inkscape:pageopacity="0"
     inkscape:pageshadow="2"
     inkscape:window-width="1366"
     inkscape:window-height="704"
     id="namedview3622"
     showgrid="false"
     inkscape:zoom="0.5105311"
     inkscape:cx="315.33897"
     inkscape:cy="147.33552"
     inkscape:window-x="0"
     inkscape:window-y="27"
     inkscape:window-maximized="1"
     inkscape:current-layer="svg2" />
  <metadata
     id="metadata7">
    <rdf:RDF>
      <cc:Work
         rdf:about="">
        <dc:format>image/svg+xml</dc:format>
        <dc:type
           rdf:resource="http://purl.org/dc/dcmitype/StillImage" />
        <dc:title></dc:title>
      </cc:Work>
    </rdf:RDF>
  </metadata>
  <g
     aria-label=" "
     transform="translate(38.558235,-191.85152)"
     style="font-style:normal;font-weight:normal;font-size:40px;line-height:0.01%;font-family:sans-serif;letter-spacing:0px;word-spacing:0px;fill:#000000"
     id="flowRoot3004" />
  <path
     style="fill:#606060;fill-opacity:1"
     d="M 42.755035,193.71849 H 353.91504 v 5.8627 H 42.755035 Z"
     id="rect3020" />
  <path
     style="fill:#606060;fill-opacity:1"
     d="m 647.34821,193.8185 h 311.16 v 5.8627 h -311.16 z"
     id="rect3020-1" />
  <g
     line-height="125%"
     font-style="normal"
     font-size="40px"
     transform="matrix(2.3120866,0,0,2.3536056,-491.29156,-293.89018)"
     font-weight="normal"
     style="font-size:40px;font-style:normal;font-weight:normal;line-height:125%;letter-spacing:0px;word-spacing:0px;fill:#606060;font-family:Sans;fill-opacity:1"
     id="flowRoot3040">
    <path
       inkscape:connector-curvature="0"
       d="m 390.1,209.61 4.5599,-10.64 -4.9599,0 -3.52,8.2399 -0.52,0 0,-8.2399 -4.7999,0 0,21.36 4.7999,0 0,-8.3199 0.56,0 3.6,8.3199 4.8399,0 z"
       id="path3103"
       style="fill:#606060;fill-opacity:1" />
    <path
       inkscape:connector-curvature="0"
       d="m 409.6,220.33 -1.84,-8.5599 c 0.50748,-0.24916 0.91247,-0.61082 1.215,-1.085 0.30248,-0.47415 0.45748,-1.0058 0.465,-1.595 v -7.1599 c -0.0208,-0.82164 -0.30918,-1.5083 -0.86499,-2.06 -0.55584,-0.55164 -1.2542,-0.8383 -2.095,-0.85999 h -10.16 v 21.32 h 4.7999 v -8.2799 h 1.88 l 1.64,8.2799 z m -4.9999,-13.08 -3.48,0 0,-3.44 3.48,0 z"
       id="path3105"
       style="fill:#606060;fill-opacity:1" />
    <path
       inkscape:connector-curvature="0"
       d="m 425.15,201.93 c -0.0208,-0.84081 -0.30918,-1.5391 -0.86499,-2.095 -0.55584,-0.5558 -1.2542,-0.84413 -2.095,-0.86499 h -7.1999 c -0.84082,0.0209 -1.5392,0.30919 -2.095,0.86499 -0.55583,0.55585 -0.84416,1.2542 -0.86499,2.095 v 18.4 h 4.7999 v -4.9599 h 3.52 v 4.9599 h 4.7999 z m -4.7999,8.5999 -3.52,0 0,-6.7599 3.52,0 z"
       id="path3107"
       style="fill:#606060;fill-opacity:1" />
    <path
       inkscape:connector-curvature="0"
       d="m 436.81,209.61 4.5599,-10.64 -4.9599,0 -3.52,8.2399 -0.52,0 0,-8.2399 -4.7999,0 0,21.36 4.7999,0 0,-8.3199 0.56,0 3.6,8.3199 4.8399,0 z"
       id="path3109"
       style="fill:#606060;fill-opacity:1" />
    <path
       inkscape:connector-curvature="0"
       d="m 446,198.97 c -0.84083,0.0209 -1.5392,0.30919 -2.095,0.86499 -0.55583,0.55585 -0.84415,1.2542 -0.86499,2.095 v 15.44 c 0.0208,0.82332 0.30917,1.5166 0.86499,2.08 0.55583,0.56333 1.2542,0.85666 2.095,0.87999 h 7.1999 c 0.84081,-0.0233 1.5391,-0.31666 2.095,-0.87999 0.55581,-0.56333 0.84414,-1.2566 0.86499,-2.08 v -15.44 c -0.0208,-0.84081 -0.30918,-1.5391 -0.86499,-2.095 -0.55584,-0.5558 -1.2542,-0.84413 -2.095,-0.86499 z m 5.3199,16.52 -3.48,0 0,-11.72 3.48,0 z"
       id="path3111"
       style="fill:#606060;fill-opacity:1" />
    <path
       inkscape:connector-curvature="0"
       d="m 475.11,198.97 -0.24,16.52 -0.47999,0 -2.88,-16.52 -4.5599,0 -2.8,16.52 -0.55999,0 -0.2,-16.52 -4.7999,0 0.55999,21.36 8.8399,0 1.24,-7.2399 1.28,7.2399 8.8399,0 0.56,-21.36 z"
       id="path3113"
       style="fill:#606060;fill-opacity:1" />
  </g>
  <g
     aria-label="MAKAPAKA"
     transform="matrix(7.2142592,0,0,4.0780271,132.59106,1225.8462)"
     style="font-style:normal;font-weight:normal;font-size:40px;line-height:1.25;font-family:sans-serif;letter-spacing:0px;word-spacing:0px;fill:#000000;fill-opacity:1;stroke:none"
     id="flowRoot42">
    <path
       d="m -3.4709375,-278.46438 -4.28,-13.51999 h -4.7600005 v 28 h 4.8000005 v -13.76 l 1.88,7.12 h 4.68 l 1.92,-7.12 v 13.76 h 4.8 v -28 h -4.76 z m 0.36,7.44 h -1.12 l -0.48,-0.47999 0.56,-0.56 z m -1.68,0 h -0.4 l 0.2,-0.19999 z m -4.92,-18.71999 0.4,-0.44 2.52,2.52 0.52,1.63999 -3.24,-3.23999 h -0.04 z m 1.6,22.36 v 1.12 l -1.8,-1.84 v -1.12 z m 0,-8.28 v 1.07999 l -1.8,-1.79999 v -1.12 z m -1.68,-12.2 -0.12,-0.16001 v -0.51999 z m 1.32,-3.12 0.92,0.92 0.52,1.59999 -2,-1.95999 z m 0.48,-0.48001 0.16,0.60001 -0.36,-0.4 z m -3.8800005,-0.15999 h 3.4800005 l -1.7600005,1.71999 z m 1.56,25.12 -1.84,1.84 v -26.68001 l 1.84,1.84001 z m -1.439999,2.12 h -0.120001 l 0.08,-0.08 z m 0.799999,-0.88 0.880001,0.88 h -1.120001 l -0.32,-0.32001 z m 0.8,-0.84 1.7200005,1.72 h -1.08 l -1.2000005,-1.16 z m 0.2400005,-1.44 1.8,1.83999 v 1.08001 l -1.8,-1.8 z m 0,-3.32 1.8,1.83999 v 1.08001 l -1.8,-1.8 z m 0,-1.68 1.8,1.83999 v 1.12 l -1.8,-1.83999 z m 0,-1.64 1.8,1.83999 v 1.08001 l -1.8,-1.8 z m 0,-1.68 1.8,1.83999 v 1.12 l -1.8,-1.83999 z m 0,-3.32 1.8,1.83999 v 1.12001 l -1.8,-1.84 z m 0,-1.64 1.8,1.79999 v 1.12 l -1.8,-1.8 z m 0,-1.68 1.48,1.47999 0.24,1.40001 -1.72,-1.76 z m 0,-1.64001 1.08,1.08001 0.24,1.35999 -1.32,-1.32 z m 0,-1.68 0.64,0.68 0.28,1.40001 -0.92,-0.96001 z m 0,-1.64 0.24,0.28001 0.28,1.35999 -0.52,-0.52 z m 4.4,3.88 -3.08,-3.07999 -0.64,-1.76 3.2,3.2 z m 0.76,2.40001 -2.88,-2.88 -0.64,-1.76001 3,3.04001 z m 0.8,2.44 -2.72,-2.68 -0.64,-1.76 2.84,2.8 z m 0.28,0.96 v 1 l -2.04,-2.04 -0.64,-1.76001 2.64,2.64001 z m 0,2.68 -1.08,-1.08 -0.64,-1.76 1.72,1.72 z m 0,1.84 -0.76,-2.08001 0.76,0.76 z m 0.96,-0.4 1.56,1.6 -0.24,0.88 -1.64,-1.68 z m 0.44,-1.24001 1.48,1.52001 -0.24,0.88 -1.56,-1.56 z m 0.44,-1.19999 1.36,1.39999 -0.2,0.88001 -1.48,-1.48 z m 0.44,-1.24001 1.28,1.32 -0.24,0.88 -1.36,-1.35999 z m 0.44,-1.19999 1.2,1.24 -0.24,0.83999 -1.28,-1.27999 z m 0.44,-1.24 1.12,1.16 -0.24,0.88 -1.2,-1.2 z m 0.44,-1.2 0.96,1 -0.2,0.92 -1.08,-1.12 z m 1.48,-10.64 h 3.44 l -1.72,1.71999 z m 0.84,4.12 0.24,-0.68 -0.16,0.8 z m 0,0.56 -0.16,0.96 -0.28,-0.28 0.28,-0.84 z m -0.28,1.4 -0.16,0.92 -0.44,-0.44 0.32,-0.8 z m -0.24,1.39999 -0.2,0.92001 -0.6,-0.6 0.32,-0.84 z m -0.28,1.40001 -0.2,0.92 -0.76,-0.8 0.32,-0.8 z m -0.28,1.36 -0.2,0.91999 -0.92,-0.91999 0.32,-0.84 z m 1.8,-7.16 v 22.04 l -1.84,1.84 v -14.56 z m -1.44,24.16 h -0.12 l 0.08,-0.08 z m 0.76,-0.88 0.92,0.88 h -1.12 l -0.32,-0.32001 z m 0.84,-0.84 1.72,1.72 h -1.12 l -1.16,-1.16 z m 0.24,-1.44 1.8,1.83999 v 1.08001 l -1.8,-1.8 z m 0,-1.68 1.8,1.84 v 1.12 l -1.8,-1.84 z m 0,-1.64 1.8,1.83999 v 1.08001 l -1.8,-1.8 z m 0,-1.68 1.8,1.83999 v 1.12 l -1.8,-1.83999 z m 0,-1.64 1.8,1.83999 v 1.08001 l -1.8,-1.8 z m 0,-1.68 1.8,1.83999 v 1.12 l -1.8,-1.83999 z m 0,-1.64 1.8,1.84 v 1.07999 l -1.8,-1.79999 z m 0,-1.68 1.8,1.83999 v 1.12001 l -1.8,-1.84 z m 0,-1.64 1.8,1.84 v 1.07999 l -1.8,-1.8 z m 0,-1.68 1.8,1.84 v 1.12 l -1.8,-1.84 z m 0,-1.64001 1.8,1.84001 v 1.08 l -1.8,-1.80001 z m 0,-1.68 1.8,1.84001 v 1.12 l -1.8,-1.84001 z m 0,-1.64 1.8,1.84001 v 1.08 l -1.8,-1.80001 z m 0,-1.68 1.8,1.84001 v 1.12 l -1.8,-1.84001 z m 0.6,-1.03999 1.2,1.24 v 1.08 l -1.76,-1.76 z m 0.84,-0.8 0.36,0.36 v 1.12 l -0.92,-0.96001 z m 0.36,-0.4 v 0.23999 l -0.08,-0.11999 z m -2.48,1.56 -5.96,16.56 v -4.52 l 4.32,-13.64 z m -12.04,2.2 5.44,14.8 -1.64,1.64 -2.16,-8.08 z m 5.88,14.88 h 0.04 l 1.68,1.71999 h -0.84 l -1.28,-1.32 z"
       style="font-style:normal;font-variant:normal;font-weight:normal;font-stretch:normal;font-family:Sullivan;-inkscape-font-specification:Sullivan"
       id="path53" />
    <path
       d="m 21.077812,-289.02438 c 0,-1.63999 -1.36,-2.95999 -2.96,-2.95999 h -7.199999 c -1.6400005,0 -2.9600005,1.32 -2.9600005,2.95999 v 25.04001 h 4.8000005 v -8.32 h 3.479999 v 8.32 h 4.84 z m -2.6,14.80001 v 7.72 l -1.84,1.84 v -7.76 z m -3.119999,1.56 h -1.08 l -1.84,-1.84 h 1.12 z m -2.720001,-4.04001 h 3.680001 l 1.84,1.8 h -7.32 z m -3.9199995,12.32001 h -0.12 l 0.08,-0.08 z m 0.8,-0.88 0.8800005,0.88 H 9.2778125 l -0.32,-0.32001 z m 0.7999995,-0.84 1.720001,1.72 h -1.080001 l -1.1999995,-1.16 z m 7.08,-8.4 h 0.800001 l -0.400001,0.4 z m 1.08,-14.68 v 14.08 l -1.84,-1.84 v -10.40001 z m -1,-0.2 h 0.680001 l -0.360001,0.32 z m 0.04,0.6 -0.560001,0.56 -1.159999,-1.16 h 1.119999 z m -0.84,0.84 -0.36,0.35999 h -0.36 l -1.8,-1.79999 h 1.08 z m -0.440001,10.84 h -3.479999 v -10.08 h 3.479999 z m -0.799999,-10.48001 h -1.12 l -1.84,-1.79999 h 1.12 z m -1.68,0 h -1.120001 l -1.799999,-1.79999 h 1.08 z m -1.4,20.20001 v 1.12 l -1.8,-1.84 v -1.12 z m -1.8,-15.12 1.8,1.84 v 1.12 l -1.8,-1.84 z m 1.8,4.59999 -1.8,-1.8 v -1.11999 l 1.8,1.84 z m -1.8,-6.24 1.8,1.84001 v 1.08 l -1.8,-1.80001 z m 0,-1.68 1.8,1.84001 v 1.12 l -1.8,-1.84001 z m 0,-1.64 1.8,1.84001 v 1.08 l -1.8,-1.80001 z m 0.32,11.96001 -0.32,0.32 v -0.68 z m -0.32,-0.88 v -1.12 l 1.16,1.15999 -0.56,0.56001 z m 0,-1.68 v -1.12 l 1.8,1.83999 v 0.36001 l -0.36,0.36 z m 1.8,-8.12 -1.8,-1.84001 v -1.12 l 1.8,1.84001 z m -1.8,18.64 1.8,1.83999 v 1.08001 l -1.8,-1.8 z m 0,-3.32 1.8,1.83999 v 1.08001 l -1.8,-1.8 z m 0,-1.68 1.8,1.83999 v 1.12 l -1.8,-1.83999 z m 0,-0.52 v -1.12 l 1.8,1.83999 v 1.08001 z m 6.96,-0.8 -0.560001,0.56 -1.199999,-1.2 h 1.119999 z m -0.480001,9.48 h -0.12 l 0.04,-0.08 z m 0.76,-0.88 0.880001,0.88 h -1.080001 l -0.36,-0.32001 z m 0.84,-0.84 1.720001,1.72 h -1.120001 l -1.16,-1.16 z m 0.2,-1.44 1.840001,1.83999 v 1.08001 l -1.840001,-1.8 z m 0,-1.68 1.840001,1.84 v 1.12 l -1.840001,-1.84 z m 0,-1.64 1.840001,1.83999 v 1.08001 l -1.840001,-1.8 z m 0,-1.68 1.840001,1.83999 v 1.12 l -1.840001,-1.83999 z m 0,-1.64 1.840001,1.83999 v 1.08001 l -1.840001,-1.8 z m 0,-1.68 1.840001,1.83999 v 1.12 l -1.840001,-1.83999 z m 0,-1.64 1.840001,1.84 v 1.07999 l -1.840001,-1.79999 z m 0,-1.68 1.840001,1.83999 v 1.12001 l -1.840001,-1.84 z m 0,-1.64 1.840001,1.84 v 1.07999 l -1.840001,-1.8 z m 0,-1.68 1.840001,1.84 v 1.12 l -1.840001,-1.84 z m 0,-1.64001 1.840001,1.84001 v 1.08 l -1.840001,-1.80001 z m 0,-1.68 1.840001,1.84001 v 1.12 l -1.840001,-1.84001 z m 0,-1.64 1.840001,1.84001 v 1.08 l -1.840001,-1.80001 z m 0,-1.68 1.840001,1.84001 v 1.12 l -1.840001,-1.84001 z m 0.64,-1.03999 1.200001,1.24 v 1.08 l -1.760001,-1.76 z m 0.56,-0.56 c 0.280001,0.32 0.480001,0.71999 0.600001,1.2 l -0.920001,-0.92001 z m -1.92,-0.88 c 0.6,0 1.200001,0.24 1.64,0.59999 l -1.24,1.24001 h -8.079999 l -1.2000005,-1.2 c 0.44,-0.4 1.0400005,-0.64 1.6800005,-0.64 z m -7.959999,2.12 v 23 l -1.8400005,1.84 v -24.36001 c 0,-0.63999 0.24,-1.23999 0.64,-1.68 z m 0.6,15 h 1.12 l 1.84,1.84 h -1.12 z m 3.32,0 h 1.12 l 1.48,1.47999 -0.4,0.36001 h -0.36 z"
       style="font-style:normal;font-variant:normal;font-weight:normal;font-stretch:normal;font-family:Sullivan;-inkscape-font-specification:Sullivan"
       id="path55" />
    <path
       d="m 37.693438,-291.98437 h -4.880001 l -3.68,11.56 h -0.36 v -11.56 h -4.8 v 28 h 4.8 v -11.64 h 0.440001 l 3.599999,11.47999 0.04,0.16001 h 4.840001 l -4.480001,-14.04001 z m -3.600001,23.68 2.68,2.68 0.32,0.96 -2.399999,-1.84 z m -5.48,-7.68 -1.8,-1.8 h 1.12 l 1.440001,1.43999 -0.200001,0.36001 z m 2.92,-3.72001 0.28,-0.83999 1.36,1.36 -0.279999,0.83999 z m 0.68,-2.07999 1.36,1.36 -0.28,0.83999 -1.36,-1.35999 z m 0.400001,-1.28 1.36,1.35999 -0.240001,0.84001 -1.399999,-1.36 z m 0.4,-1.24 1.36,1.36 -0.240001,0.84 -1.36,-1.36001 z m 0.399999,-1.28001 1.36,1.36001 -0.24,0.87999 -1.36,-1.39999 z m 0.4,-1.24 1.4,1.36 -0.28,0.84001 -1.36,-1.36 z m 0.440001,-1.23999 1.36,1.35999 -0.28,0.84001 -1.36,-1.36 z m 0.399999,-1.28001 1.360001,1.36001 -0.280001,0.84 -1.359999,-1.36 z m 0.88,-0.75999 0.88,0.88 -0.28,0.84 -1.24,-1.24 z m 0.92,-0.72001 0.36,0.32001 -0.279999,0.88 -0.720001,-0.72001 z m 0.64,-0.47999 -0.16,0.39999 -0.16,-0.15999 z m -3.759999,-0.28001 h 3.479999 l -2.24,1.72001 z m -2.600001,13.20001 -1.24,-1.84 3.520001,-11.16 1.28,1.79999 z m -0.32,0.2 h -3.6 l 1.84,-1.84001 h 0.48 z m -2.039999,-12.44 v 1.12 l -0.920001,-0.92 0.560001,-0.56 z m 0,1.68 v 1.12 l -1.760001,-1.76001 0.56,-0.56 z m 0,2.76 -1.800001,-1.8 v -1.12 l 1.800001,1.8 z m -1.800001,4.8 v -1.08001 l 1.800001,1.80001 v 0.36 l -0.36,0.39999 z m 0.32,2.56 -0.32,0.35999 v -0.68 z m -0.32,-0.88001 v -1.11999 l 1.16,1.16 -0.56,0.56 z m 0,-4.44 1.800001,1.84001 v 1.12 l -1.800001,-1.84001 z m 0,-1.63999 1.800001,1.8 v 1.12 l -1.800001,-1.8 z m 0,-1.68001 1.800001,1.84001 v 1.12 l -1.800001,-1.84001 z m 1.800001,20.08001 v 1.12 l -1.800001,-1.84 v -1.08 z m 0,-24 v 0.23999 l -0.08,-0.11999 z m -3.760001,-0.20001 h 3.48 l -1.76,1.72001 z m 1.56,25.12 -1.84,1.80001 v -26.68001 l 1.84,1.84001 z m -1.44,2.08001 h -0.12 l 0.08,-0.04 z m 0.800001,-0.88 0.879999,0.88 h -1.12 l -0.32,-0.32001 z m 0.799999,-0.84 1.72,1.72 h -1.08 l -1.2,-1.16 z m 0.24,-1.44 1.800001,1.83999 v 1.08001 l -1.800001,-1.8 z m 0,-3.32 1.800001,1.83999 v 1.08001 l -1.800001,-1.8 z m 0,-1.64 1.800001,1.79999 v 1.12 l -1.800001,-1.83999 z m 0,-1.68 1.800001,1.83999 v 1.12001 l -1.800001,-1.84 z m 0,-1.64 1.800001,1.79999 v 1.12 l -1.800001,-1.83999 z m 0,-1.68 1.800001,1.84 v 1.12 l -1.800001,-1.84 z m 1.92,-0.28 h 1.08 l 0.48,0.43999 -0.44,0.68001 z m 1.64,0 h 0.240001 l -0.120001,0.12 z m 3.520001,2.4 0.52,1.64 -2.680001,-2.68 -0.479999,-1.56 v -0.04 z m 1.279999,4.08 -2.639999,-2.68 -0.520001,-1.64 2.64,2.68 z m 0.8,2.39999 -2.68,-2.63999 -0.52,-1.64 2.68,2.68 z m 0.76,2.44 -2.64,-2.63999 -0.519999,-1.64 2.64,2.68 z m -5.36,-12 0.28,-0.83999 1.44,1.48 0.520001,1.64 z m -0.439999,0.84001 3.6,11.24 -1.200001,1.79999 -3.559999,-11.23999 z m 4,13.24 h -1.280001 l 0.52,-0.76001 z m -0.560001,-1.08001 0.44,-0.63999 2.24,1.72 h -1.559999 z"
       style="font-style:normal;font-variant:normal;font-weight:normal;font-stretch:normal;font-family:Sullivan;-inkscape-font-specification:Sullivan"
       id="path57" />
    <path
       d="m 52.249687,-289.02438 c 0,-1.63999 -1.36,-2.95999 -2.96,-2.95999 h -7.2 c -1.639999,0 -2.959999,1.32 -2.959999,2.95999 v 25.04001 h 4.799999 v -8.32 h 3.480001 v 8.32 h 4.839999 z m -2.6,14.80001 v 7.72 l -1.84,1.84 v -7.76 z m -3.119999,1.56 h -1.080001 l -1.84,-1.84 h 1.12 z m -2.72,-4.04001 h 3.68 l 1.84,1.8 h -7.320001 z m -3.920001,12.32001 h -0.119999 l 0.08,-0.08 z m 0.8,-0.88 0.88,0.88 h -1.119999 l -0.32,-0.32001 z m 0.800001,-0.84 1.719999,1.72 h -1.079999 l -1.200001,-1.16 z m 7.079999,-8.4 h 0.8 l -0.4,0.4 z m 1.08,-14.68 v 14.08 l -1.84,-1.84 v -10.40001 z m -1,-0.2 h 0.680001 l -0.360001,0.32 z m 0.04,0.6 -0.56,0.56 -1.160001,-1.16 h 1.12 z m -0.84,0.84 -0.36,0.35999 h -0.36 l -1.800001,-1.79999 h 1.080001 z m -0.44,10.84 h -3.480001 v -10.08 h 3.480001 z m -0.800001,-10.48001 h -1.119999 l -1.840001,-1.79999 h 1.120001 z m -1.68,0 h -1.119999 l -1.800001,-1.79999 h 1.08 z m -1.399999,20.20001 v 1.12 l -1.800001,-1.84 v -1.12 z m -1.800001,-15.12 1.800001,1.84 v 1.12 l -1.800001,-1.84 z m 1.800001,4.59999 -1.800001,-1.8 v -1.11999 l 1.800001,1.84 z m -1.800001,-6.24 1.800001,1.84001 v 1.08 l -1.800001,-1.80001 z m 0,-1.68 1.800001,1.84001 v 1.12 l -1.800001,-1.84001 z m 0,-1.64 1.800001,1.84001 v 1.08 l -1.800001,-1.80001 z m 0.32,11.96001 -0.32,0.32 v -0.68 z m -0.32,-0.88 v -1.12 l 1.16,1.15999 -0.56,0.56001 z m 0,-1.68 v -1.12 l 1.800001,1.83999 v 0.36001 l -0.36,0.36 z m 1.800001,-8.12 -1.800001,-1.84001 v -1.12 l 1.800001,1.84001 z m -1.800001,18.64 1.800001,1.83999 v 1.08001 l -1.800001,-1.8 z m 0,-3.32 1.800001,1.83999 v 1.08001 l -1.800001,-1.8 z m 0,-1.68 1.800001,1.83999 v 1.12 l -1.800001,-1.83999 z m 0,-0.52 v -1.12 l 1.800001,1.83999 v 1.08001 z m 6.960001,-0.8 -0.56,0.56 -1.200001,-1.2 h 1.120001 z m -0.480001,9.48 h -0.12 l 0.04,-0.08 z m 0.76,-0.88 0.880001,0.88 h -1.08 l -0.36,-0.32001 z m 0.84,-0.84 1.720001,1.72 h -1.12 l -1.160001,-1.16 z m 0.2,-1.44 1.840001,1.83999 v 1.08001 l -1.840001,-1.8 z m 0,-1.68 1.840001,1.84 v 1.12 l -1.840001,-1.84 z m 0,-1.64 1.840001,1.83999 v 1.08001 l -1.840001,-1.8 z m 0,-1.68 1.840001,1.83999 v 1.12 l -1.840001,-1.83999 z m 0,-1.64 1.840001,1.83999 v 1.08001 l -1.840001,-1.8 z m 0,-1.68 1.840001,1.83999 v 1.12 l -1.840001,-1.83999 z m 0,-1.64 1.840001,1.84 v 1.07999 l -1.840001,-1.79999 z m 0,-1.68 1.840001,1.83999 v 1.12001 l -1.840001,-1.84 z m 0,-1.64 1.840001,1.84 v 1.07999 l -1.840001,-1.8 z m 0,-1.68 1.840001,1.84 v 1.12 l -1.840001,-1.84 z m 0,-1.64001 1.840001,1.84001 v 1.08 l -1.840001,-1.80001 z m 0,-1.68 1.840001,1.84001 v 1.12 l -1.840001,-1.84001 z m 0,-1.64 1.840001,1.84001 v 1.08 l -1.840001,-1.80001 z m 0,-1.68 1.840001,1.84001 v 1.12 l -1.840001,-1.84001 z m 0.64,-1.03999 1.200001,1.24 v 1.08 l -1.760001,-1.76 z m 0.56,-0.56 c 0.280001,0.32 0.480001,0.71999 0.600001,1.2 l -0.920001,-0.92001 z m -1.92,-0.88 c 0.6,0 1.200001,0.24 1.64,0.59999 l -1.24,1.24001 h -8.08 l -1.2,-1.2 c 0.440001,-0.4 1.04,-0.64 1.68,-0.64 z m -7.96,2.12 v 23 l -1.839999,1.84 v -24.36001 c 0,-0.63999 0.239999,-1.23999 0.64,-1.68 z m 0.6,15 h 1.12 l 1.84,1.84 h -1.119999 z m 3.32,0 h 1.12 l 1.480001,1.47999 -0.4,0.36001 h -0.360001 z"
       style="font-style:normal;font-variant:normal;font-weight:normal;font-stretch:normal;font-family:Sullivan;-inkscape-font-specification:Sullivan"
       id="path59" />
    <path
       d="m 68.265312,-289.02438 c 0,-1.63999 -1.359999,-2.95999 -2.96,-2.95999 H 55.145313 v 28 h 4.799999 v -11.64 h 5.36 c 1.600001,0 2.96,-1.32 2.96,-2.96001 z m -3.68,11.20001 h 1.120001 l 1.239999,1.23999 c -0.2,0.16001 -0.439999,0.28001 -0.72,0.40001 z m -2.039999,1.84 h -1.080001 l -1.84,-1.84 h 1.12 z m -0.160001,-1.84 1.84,1.84 h -1.12 l -1.84,-1.84 z m -4.36,-0.4 1.800001,-1.80001 h 3.68 l 1.84,1.80001 z m -0.68,-11.28 v 23 l -1.839999,1.84 v -26.68001 z m 7.32,0.12 h 0.680001 l -0.36,0.32 z m 0.04,0.6 -0.56,0.56 -1.160001,-1.16 h 1.12 z m -0.84,0.84 -0.36,0.35999 h -0.36 l -1.800001,-1.79999 h 1.080001 z m -0.44,7.52 h -3.480001 v -6.76 h 3.480001 z m -0.800001,-7.16001 h -1.119999 l -1.840001,-1.79999 h 1.120001 z m -1.68,0 h -1.119999 l -1.800001,-1.79999 h 1.08 z m -1.399999,19.64001 -1.800001,-1.8 v -1.12 l 1.800001,1.83999 z m -1.800001,-17.88001 1.800001,1.84001 v 1.12 l -1.800001,-1.84001 z m 1.800001,4.60001 -1.800001,-1.80001 v -1.12 l 1.800001,1.84001 z m -1.800001,-6.24001 1.800001,1.84001 v 1.08 l -1.800001,-1.80001 z m 1.800001,20.08001 v 1.12 l -1.800001,-1.84 v -1.12 z m -1.480001,-11.44 -0.32,0.32 v -0.68 z m -0.32,-0.88001 v -1.11999 l 1.16,1.16 -0.56,0.56 z m 0,-1.67999 v -1.12 l 1.800001,1.84 v 0.36 l -0.36,0.36 z m 1.800001,-4.8 -1.800001,-1.84001 v -1.12 l 1.800001,1.84001 z m -3.640001,21.8 h -0.119999 l 0.08,-0.08 z m 0.8,-0.88 0.88,0.88 h -1.119999 l -0.32,-0.32001 z m 0.800001,-0.84 1.719999,1.72 h -1.079999 l -1.200001,-1.16 z m 0.239999,-1.44 1.800001,1.83999 v 1.08001 l -1.800001,-1.8 z m 0,-5 1.800001,1.83999 v 1.12 l -1.800001,-1.83999 z m 0,-1.64 1.800001,1.83999 v 1.08001 l -1.800001,-1.8 z m 0,-1.68 1.800001,1.83999 v 1.12 l -1.800001,-1.83999 z m 1.800001,1.27999 -1.800001,-1.79999 v -1.12 l 1.800001,1.84 z m 4.279999,-12.76 1.84,-1.83999 v 10.76 l -1.84,-1.84 z m 4.040001,8.36001 v 0.39999 c 0,0.24 -0.04,0.44 -0.08,0.64001 l -1.760001,-1.76001 v -1.11999 z m -1.840001,-3.52 1.840001,1.84 v 1.12 l -1.840001,-1.84 z m 0,-1.64001 1.840001,1.84001 v 1.08 l -1.840001,-1.80001 z m 0,-1.68 1.840001,1.84001 v 1.12 l -1.840001,-1.84001 z m 0,-1.64 1.840001,1.84001 v 1.08 l -1.840001,-1.80001 z m 0,-1.68 1.840001,1.84001 v 1.12 l -1.840001,-1.84001 z m 0.64,-1.03999 1.200001,1.24 v 1.08 l -1.760001,-1.76 z m 0.56,-0.56 c 0.280001,0.32 0.480001,0.71999 0.6,1.2 l -0.919999,-0.92001 z m -1.519999,0.96 h -8.080001 l -1.839999,-1.84 h 9.519999 c 0.6,0 1.200001,0.24 1.64,0.59999 z m -7.760001,11.96 h 1.12 l 1.84,1.84 h -1.119999 z m 5,0 h 1.120001 l 1.759999,1.76 c -0.16,0.04 -0.36,0.08 -0.52,0.08 h -0.519999 z m 3.08,-0.24 v -1.12 l 1.64,1.64 c -0.12,0.24 -0.28,0.48 -0.44,0.68 z"
       style="font-style:normal;font-variant:normal;font-weight:normal;font-stretch:normal;font-family:Sullivan;-inkscape-font-specification:Sullivan"
       id="path61" />
    <path
       d="m 83.343437,-289.02438 c 0,-1.63999 -1.359999,-2.95999 -2.96,-2.95999 h -7.2 c -1.64,0 -2.959999,1.32 -2.959999,2.95999 v 25.04001 h 4.799999 v -8.32 h 3.480001 v 8.32 h 4.839999 z m -2.6,14.80001 v 7.72 l -1.84,1.84 v -7.76 z m -3.12,1.56 h -1.08 l -1.839999,-1.84 h 1.119999 z m -2.72,-4.04001 h 3.680001 l 1.84,1.8 h -7.320001 z m -3.92,12.32001 h -0.119999 l 0.08,-0.08 z m 0.800001,-0.88 0.879999,0.88 h -1.12 l -0.319999,-0.32001 z m 0.8,-0.84 1.719999,1.72 h -1.079999 l -1.200001,-1.16 z m 7.079999,-8.4 h 0.8 l -0.399999,0.4 z m 1.08,-14.68 v 14.08 l -1.84,-1.84 v -10.40001 z m -1,-0.2 h 0.680001 l -0.36,0.32 z m 0.04,0.6 -0.56,0.56 -1.16,-1.16 h 1.119999 z m -0.84,0.84 -0.36,0.35999 h -0.36 l -1.8,-1.79999 h 1.08 z m -0.44,10.84 h -3.480001 v -10.08 h 3.480001 z m -0.8,-10.48001 h -1.12 l -1.840001,-1.79999 h 1.120001 z m -1.680001,0 h -1.12 l -1.8,-1.79999 h 1.08 z m -1.4,20.20001 v 1.12 l -1.8,-1.84 v -1.12 z m -1.8,-15.12 1.8,1.84 v 1.12 l -1.8,-1.84 z m 1.8,4.59999 -1.8,-1.8 v -1.11999 l 1.8,1.84 z m -1.8,-6.24 1.8,1.84001 v 1.08 l -1.8,-1.80001 z m 0,-1.68 1.8,1.84001 v 1.12 l -1.8,-1.84001 z m 0,-1.64 1.8,1.84001 v 1.08 l -1.8,-1.80001 z m 0.320001,11.96001 -0.320001,0.32 v -0.68 z m -0.320001,-0.88 v -1.12 l 1.16,1.15999 -0.559999,0.56001 z m 0,-1.68 v -1.12 l 1.8,1.83999 v 0.36001 l -0.36,0.36 z m 1.8,-8.12 -1.8,-1.84001 v -1.12 l 1.8,1.84001 z m -1.8,18.64 1.8,1.83999 v 1.08001 l -1.8,-1.8 z m 0,-3.32 1.8,1.83999 v 1.08001 l -1.8,-1.8 z m 0,-1.68 1.8,1.83999 v 1.12 l -1.8,-1.83999 z m 0,-0.52 v -1.12 l 1.8,1.83999 v 1.08001 z m 6.960001,-0.8 -0.56,0.56 -1.200001,-1.2 h 1.120001 z m -0.480001,9.48 h -0.12 l 0.04,-0.08 z m 0.760001,-0.88 0.88,0.88 h -1.08 l -0.36,-0.32001 z m 0.839999,-0.84 1.72,1.72 h -1.119999 l -1.160001,-1.16 z m 0.2,-1.44 1.840001,1.83999 v 1.08001 l -1.840001,-1.8 z m 0,-1.68 1.840001,1.84 v 1.12 l -1.840001,-1.84 z m 0,-1.64 1.840001,1.83999 v 1.08001 l -1.840001,-1.8 z m 0,-1.68 1.840001,1.83999 v 1.12 l -1.840001,-1.83999 z m 0,-1.64 1.840001,1.83999 v 1.08001 l -1.840001,-1.8 z m 0,-1.68 1.840001,1.83999 v 1.12 l -1.840001,-1.83999 z m 0,-1.64 1.840001,1.84 v 1.07999 l -1.840001,-1.79999 z m 0,-1.68 1.840001,1.83999 v 1.12001 l -1.840001,-1.84 z m 0,-1.64 1.840001,1.84 v 1.07999 l -1.840001,-1.8 z m 0,-1.68 1.840001,1.84 v 1.12 l -1.840001,-1.84 z m 0,-1.64001 1.840001,1.84001 v 1.08 l -1.840001,-1.80001 z m 0,-1.68 1.840001,1.84001 v 1.12 l -1.840001,-1.84001 z m 0,-1.64 1.840001,1.84001 v 1.08 l -1.840001,-1.80001 z m 0,-1.68 1.840001,1.84001 v 1.12 l -1.840001,-1.84001 z m 0.64,-1.03999 1.200001,1.24 v 1.08 l -1.760001,-1.76 z m 0.56,-0.56 c 0.280001,0.32 0.480001,0.71999 0.6,1.2 l -0.919999,-0.92001 z m -1.92,-0.88 c 0.6,0 1.200001,0.24 1.64,0.59999 l -1.239999,1.24001 h -8.08 l -1.2,-1.2 c 0.44,-0.4 1.039999,-0.64 1.679999,-0.64 z m -7.959999,2.12 v 23 l -1.84,1.84 v -24.36001 c 0,-0.63999 0.239999,-1.23999 0.64,-1.68 z m 0.599999,15 h 1.120001 l 1.84,1.84 h -1.12 z m 3.32,0 h 1.12 l 1.480001,1.47999 -0.400001,0.36001 h -0.36 z"
       style="font-style:normal;font-variant:normal;font-weight:normal;font-stretch:normal;font-family:Sullivan;-inkscape-font-specification:Sullivan"
       id="path63" />
    <path
       d="m 99.959063,-291.98437 h -4.880001 l -3.68,11.56 h -0.36 v -11.56 h -4.799999 v 28 h 4.799999 v -11.64 h 0.44 l 3.6,11.47999 0.04,0.16001 h 4.840001 l -4.480001,-14.04001 z m -3.600001,23.68 2.68,2.68 0.32,0.96 -2.399999,-1.84 z m -5.479999,-7.68 -1.8,-1.8 h 1.119999 l 1.44,1.43999 -0.199999,0.36001 z m 2.92,-3.72001 0.28,-0.83999 1.36,1.36 -0.28,0.83999 z m 0.679999,-2.07999 1.36,1.36 -0.28,0.83999 -1.36,-1.35999 z m 0.400001,-1.28 1.36,1.35999 -0.24,0.84001 -1.4,-1.36 z m 0.399999,-1.24 1.36,1.36 -0.24,0.84 -1.36,-1.36001 z m 0.4,-1.28001 1.36,1.36001 -0.239999,0.87999 -1.36,-1.39999 z m 0.400001,-1.24 1.399999,1.36 -0.28,0.84001 -1.36,-1.36 z m 0.44,-1.23999 1.36,1.35999 -0.28,0.84001 -1.36,-1.36 z m 0.399999,-1.28001 1.36,1.36001 -0.279999,0.84 -1.360001,-1.36 z m 0.880001,-0.75999 0.879999,0.88 -0.28,0.84 -1.239999,-1.24 z m 0.92,-0.72001 0.36,0.32001 -0.28,0.88 -0.72,-0.72001 z m 0.639999,-0.47999 -0.16,0.39999 -0.16,-0.15999 z m -3.759999,-0.28001 h 3.48 l -2.240001,1.72001 z m -2.6,13.20001 -1.240001,-1.84 3.52,-11.16 1.28,1.79999 z m -0.320001,0.2 h -3.599999 l 1.839999,-1.84001 h 0.48 z m -2.04,-12.44 v 1.12 l -0.919999,-0.92 0.559999,-0.56 z m 0,1.68 v 1.12 l -1.759999,-1.76001 0.56,-0.56 z m 0,2.76 -1.8,-1.8 v -1.12 l 1.8,1.8 z m -1.8,4.8 v -1.08001 l 1.8,1.80001 v 0.36 l -0.36,0.39999 z m 0.320001,2.56 -0.320001,0.35999 v -0.68 z m -0.320001,-0.88001 v -1.11999 l 1.16,1.16 -0.559999,0.56 z m 0,-4.44 1.8,1.84001 v 1.12 l -1.8,-1.84001 z m 0,-1.63999 1.8,1.8 v 1.12 l -1.8,-1.8 z m 0,-1.68001 1.8,1.84001 v 1.12 l -1.8,-1.84001 z m 1.8,20.08001 v 1.12 l -1.8,-1.84 v -1.08 z m 0,-24 v 0.23999 l -0.08,-0.11999 z m -3.759999,-0.20001 h 3.479999 l -1.759999,1.72001 z m 1.56,25.12 -1.84,1.80001 v -26.68001 l 1.84,1.84001 z m -1.440001,2.08001 h -0.119999 l 0.08,-0.04 z m 0.800001,-0.88 0.879999,0.88 h -1.12 l -0.319999,-0.32001 z m 0.8,-0.84 1.719999,1.72 h -1.079999 l -1.200001,-1.16 z m 0.239999,-1.44 1.8,1.83999 v 1.08001 l -1.8,-1.8 z m 0,-3.32 1.8,1.83999 v 1.08001 l -1.8,-1.8 z m 0,-1.64 1.8,1.79999 v 1.12 l -1.8,-1.83999 z m 0,-1.68 1.8,1.83999 v 1.12001 l -1.8,-1.84 z m 0,-1.64 1.8,1.79999 v 1.12 l -1.8,-1.83999 z m 0,-1.68 1.8,1.84 v 1.12 l -1.8,-1.84 z m 1.92,-0.28 h 1.08 l 0.48,0.43999 -0.439999,0.68001 z m 1.64,0 h 0.24 l -0.119999,0.12 z m 3.52,2.4 0.520001,1.64 -2.680001,-2.68 -0.48,-1.56 v -0.04 z m 1.28,4.08 -2.64,-2.68 -0.52,-1.64 2.64,2.68 z m 0.800001,2.39999 -2.680001,-2.63999 -0.519999,-1.64 2.679999,2.68 z m 0.759999,2.44 -2.64,-2.63999 -0.519999,-1.64 2.64,2.68 z m -5.36,-12 0.28,-0.83999 1.44,1.48 0.52,1.64 z m -0.439999,0.84001 3.599999,11.24 -1.2,1.79999 -3.559999,-11.23999 z m 4,13.24 h -1.280001 l 0.52,-0.76001 z m -0.560001,-1.08001 0.44,-0.63999 2.240001,1.72 h -1.56 z"
       style="font-style:normal;font-variant:normal;font-weight:normal;font-stretch:normal;font-family:Sullivan;-inkscape-font-specification:Sullivan"
       id="path65" />
    <path
       d="m 114.51531,-289.02438 c 0,-1.63999 -1.36,-2.95999 -2.96,-2.95999 h -7.2 c -1.64,0 -2.96,1.32 -2.96,2.95999 v 25.04001 h 4.8 v -8.32 h 3.48 v 8.32 h 4.84 z m -2.6,14.80001 v 7.72 l -1.84,1.84 v -7.76 z m -3.12,1.56 h -1.08 l -1.84,-1.84 h 1.12 z m -2.72,-4.04001 h 3.68 l 1.84,1.8 h -7.32 z m -3.92,12.32001 h -0.12 l 0.08,-0.08 z m 0.8,-0.88 0.88,0.88 h -1.12 l -0.32,-0.32001 z m 0.8,-0.84 1.72,1.72 h -1.08 l -1.2,-1.16 z m 7.08,-8.4 h 0.8 l -0.4,0.4 z m 1.08,-14.68 v 14.08 l -1.84,-1.84 v -10.40001 z m -1,-0.2 h 0.68 l -0.36,0.32 z m 0.04,0.6 -0.56,0.56 -1.16,-1.16 h 1.12 z m -0.84,0.84 -0.36,0.35999 h -0.36 l -1.8,-1.79999 h 1.08 z m -0.44,10.84 h -3.48 v -10.08 h 3.48 z m -0.8,-10.48001 h -1.12 l -1.84,-1.79999 h 1.12 z m -1.68,0 h -1.12 l -1.8,-1.79999 h 1.08 z m -1.4,20.20001 v 1.12 l -1.8,-1.84 v -1.12 z m -1.8,-15.12 1.8,1.84 v 1.12 l -1.8,-1.84 z m 1.8,4.59999 -1.8,-1.8 v -1.11999 l 1.8,1.84 z m -1.8,-6.24 1.8,1.84001 v 1.08 l -1.8,-1.80001 z m 0,-1.68 1.8,1.84001 v 1.12 l -1.8,-1.84001 z m 0,-1.64 1.8,1.84001 v 1.08 l -1.8,-1.80001 z m 0.32,11.96001 -0.32,0.32 v -0.68 z m -0.32,-0.88 v -1.12 l 1.16,1.15999 -0.56,0.56001 z m 0,-1.68 v -1.12 l 1.8,1.83999 v 0.36001 l -0.36,0.36 z m 1.8,-8.12 -1.8,-1.84001 v -1.12 l 1.8,1.84001 z m -1.8,18.64 1.8,1.83999 v 1.08001 l -1.8,-1.8 z m 0,-3.32 1.8,1.83999 v 1.08001 l -1.8,-1.8 z m 0,-1.68 1.8,1.83999 v 1.12 l -1.8,-1.83999 z m 0,-0.52 v -1.12 l 1.8,1.83999 v 1.08001 z m 6.96,-0.8 -0.56,0.56 -1.2,-1.2 h 1.12 z m -0.48,9.48 h -0.12 l 0.04,-0.08 z m 0.76,-0.88 0.88,0.88 h -1.08 l -0.36,-0.32001 z m 0.84,-0.84 1.72,1.72 h -1.12 l -1.16,-1.16 z m 0.2,-1.44 1.84,1.83999 v 1.08001 l -1.84,-1.8 z m 0,-1.68 1.84,1.84 v 1.12 l -1.84,-1.84 z m 0,-1.64 1.84,1.83999 v 1.08001 l -1.84,-1.8 z m 0,-1.68 1.84,1.83999 v 1.12 l -1.84,-1.83999 z m 0,-1.64 1.84,1.83999 v 1.08001 l -1.84,-1.8 z m 0,-1.68 1.84,1.83999 v 1.12 l -1.84,-1.83999 z m 0,-1.64 1.84,1.84 v 1.07999 l -1.84,-1.79999 z m 0,-1.68 1.84,1.83999 v 1.12001 l -1.84,-1.84 z m 0,-1.64 1.84,1.84 v 1.07999 l -1.84,-1.8 z m 0,-1.68 1.84,1.84 v 1.12 l -1.84,-1.84 z m 0,-1.64001 1.84,1.84001 v 1.08 l -1.84,-1.80001 z m 0,-1.68 1.84,1.84001 v 1.12 l -1.84,-1.84001 z m 0,-1.64 1.84,1.84001 v 1.08 l -1.84,-1.80001 z m 0,-1.68 1.84,1.84001 v 1.12 l -1.84,-1.84001 z m 0.64,-1.03999 1.2,1.24 v 1.08 l -1.76,-1.76 z m 0.56,-0.56 c 0.28,0.32 0.48,0.71999 0.6,1.2 l -0.92,-0.92001 z m -1.92,-0.88 c 0.6,0 1.2,0.24 1.64,0.59999 l -1.24,1.24001 h -8.08 l -1.2,-1.2 c 0.44,-0.4 1.04,-0.64 1.68,-0.64 z m -7.96,2.12 v 23 l -1.84,1.84 v -24.36001 c 0,-0.63999 0.24,-1.23999 0.64,-1.68 z m 0.6,15 h 1.12 l 1.84,1.84 h -1.12 z m 3.32,0 h 1.12 l 1.48,1.47999 -0.4,0.36001 h -0.36 z"
       style="font-style:normal;font-variant:normal;font-weight:normal;font-stretch:normal;font-family:Sullivan;-inkscape-font-specification:Sullivan"
       id="path67" />
  </g>
</svg>
